<svg width="638" height="339" viewBox="0 0 638 339" fill="none" xmlns="http://www.w3.org/2000/svg">
<g filter="url(#filter0_f_3025_182351)">
<rect x="19.5" y="19" width="599" height="301" rx="8" fill="white"/>
<line x1="531.694" y1="46.1407" x2="493.345" y2="46.1407" stroke="#D7C6FE" stroke-width="2.69113" stroke-linecap="round" stroke-linejoin="round"/>
<rect x="549.376" y="34.9404" width="51.9297" height="19.7095" rx="2.35474" fill="#F9FAFB"/>
<path d="M556.445 48.2952V47.7199L558.606 45.3548C558.859 45.0778 559.068 44.8371 559.232 44.6325C559.396 44.4258 559.518 44.232 559.596 44.0508C559.677 43.8676 559.718 43.6758 559.718 43.4756C559.718 43.2455 559.662 43.0462 559.552 42.8779C559.443 42.7096 559.294 42.5796 559.104 42.488C558.915 42.3964 558.702 42.3506 558.465 42.3506C558.214 42.3506 557.994 42.4028 557.807 42.5072C557.621 42.6094 557.477 42.7533 557.375 42.9386C557.275 43.124 557.225 43.3413 557.225 43.5906H556.471C556.471 43.2071 556.559 42.8704 556.736 42.5807C556.913 42.2909 557.154 42.0651 557.458 41.9031C557.765 41.7412 558.109 41.6602 558.491 41.6602C558.874 41.6602 559.214 41.7412 559.51 41.9031C559.806 42.0651 560.039 42.2834 560.207 42.5583C560.375 42.8332 560.459 43.1389 560.459 43.4756C560.459 43.7163 560.416 43.9518 560.328 44.1819C560.243 44.4099 560.094 44.6645 559.881 44.9457C559.67 45.2249 559.377 45.5658 559.002 45.9685L557.532 47.5409V47.592H560.574V48.2952H556.445ZM564.029 48.3847C563.548 48.3847 563.138 48.2536 562.799 47.9915C562.46 47.7273 562.201 47.3449 562.022 46.8442C561.843 46.3413 561.754 45.7341 561.754 45.0224C561.754 44.3151 561.843 43.711 562.022 43.2103C562.203 42.7075 562.463 42.3239 562.802 42.0597C563.143 41.7934 563.552 41.6602 564.029 41.6602C564.507 41.6602 564.915 41.7934 565.253 42.0597C565.594 42.3239 565.854 42.7075 566.033 43.2103C566.214 43.711 566.305 44.3151 566.305 45.0224C566.305 45.7341 566.215 46.3413 566.036 46.8442C565.857 47.3449 565.599 47.7273 565.26 47.9915C564.921 48.2536 564.511 48.3847 564.029 48.3847ZM564.029 47.6815C564.507 47.6815 564.877 47.4514 565.142 46.9912C565.406 46.531 565.538 45.8747 565.538 45.0224C565.538 44.4557 565.477 43.9731 565.356 43.5746C565.236 43.1762 565.064 42.8726 564.838 42.6638C564.614 42.455 564.345 42.3506 564.029 42.3506C563.556 42.3506 563.187 42.5839 562.92 43.0505C562.654 43.515 562.521 44.1723 562.521 45.0224C562.521 45.5892 562.58 46.0707 562.7 46.467C562.819 46.8633 562.991 47.1648 563.214 47.3715C563.44 47.5782 563.712 47.6815 564.029 47.6815ZM567.519 48.2952V47.7199L569.68 45.3548C569.933 45.0778 570.142 44.8371 570.306 44.6325C570.47 44.4258 570.592 44.232 570.671 44.0508C570.752 43.8676 570.792 43.6758 570.792 43.4756C570.792 43.2455 570.737 43.0462 570.626 42.8779C570.517 42.7096 570.368 42.5796 570.178 42.488C569.989 42.3964 569.776 42.3506 569.539 42.3506C569.288 42.3506 569.068 42.4028 568.881 42.5072C568.695 42.6094 568.552 42.7533 568.449 42.9386C568.349 43.124 568.299 43.3413 568.299 43.5906H567.545C567.545 43.2071 567.633 42.8704 567.81 42.5807C567.987 42.2909 568.228 42.0651 568.532 41.9031C568.839 41.7412 569.183 41.6602 569.565 41.6602C569.948 41.6602 570.288 41.7412 570.584 41.9031C570.881 42.0651 571.113 42.2834 571.281 42.5583C571.449 42.8332 571.534 43.1389 571.534 43.4756C571.534 43.7163 571.49 43.9518 571.403 44.1819C571.317 44.4099 571.168 44.6645 570.955 44.9457C570.744 45.2249 570.451 45.5658 570.076 45.9685L568.606 47.5409V47.592H571.649V48.2952H567.519ZM575.18 48.3847C574.758 48.3847 574.382 48.3122 574.052 48.1673C573.724 48.0224 573.463 47.8211 573.269 47.5633C573.077 47.3033 572.973 47.0018 572.956 46.6588H573.761C573.778 46.8697 573.851 47.0519 573.979 47.2053C574.106 47.3566 574.274 47.4738 574.48 47.5569C574.687 47.64 574.916 47.6815 575.167 47.6815C575.449 47.6815 575.698 47.6325 575.915 47.5345C576.133 47.4365 576.303 47.3001 576.427 47.1254C576.55 46.9507 576.612 46.7483 576.612 46.5182C576.612 46.2774 576.552 46.0654 576.433 45.8822C576.314 45.6968 576.139 45.5519 575.909 45.4475C575.679 45.3431 575.398 45.2909 575.065 45.2909H574.541V44.5878H575.065C575.325 44.5878 575.553 44.5409 575.749 44.4472C575.947 44.3534 576.102 44.2213 576.213 44.0508C576.325 43.8804 576.382 43.6801 576.382 43.45C576.382 43.2284 576.333 43.0356 576.235 42.8715C576.137 42.7075 575.998 42.5796 575.819 42.488C575.643 42.3964 575.434 42.3506 575.193 42.3506C574.967 42.3506 574.754 42.3921 574.554 42.4752C574.356 42.5562 574.194 42.6744 574.068 42.83C573.942 42.9834 573.874 43.1687 573.863 43.3861H573.096C573.109 43.043 573.213 42.7426 573.406 42.4848C573.6 42.2249 573.854 42.0224 574.167 41.8776C574.482 41.7327 574.829 41.6602 575.206 41.6602C575.611 41.6602 575.958 41.7423 576.248 41.9063C576.537 42.0682 576.76 42.2824 576.916 42.5487C577.071 42.8151 577.149 43.1027 577.149 43.4116C577.149 43.7803 577.052 44.0945 576.858 44.3545C576.666 44.6144 576.405 44.7945 576.075 44.8946V44.9457C576.488 45.0139 576.811 45.1897 577.044 45.4731C577.276 45.7543 577.392 46.1027 577.392 46.5182C577.392 46.874 577.295 47.1936 577.101 47.477C576.909 47.7582 576.647 47.9798 576.315 48.1418C575.982 48.3037 575.604 48.3847 575.18 48.3847Z" fill="#5A6B74"/>
<path fill-rule="evenodd" clip-rule="evenodd" d="M586.672 42.4404C586.672 42.0069 587.024 41.6555 587.457 41.6555H592.952C593.385 41.6555 593.737 42.0069 593.737 42.4404V47.9348C593.737 48.3683 593.385 48.7197 592.952 48.7197H587.457C587.024 48.7197 586.672 48.3683 586.672 47.9348V42.4404Z" stroke="#53389E" stroke-width="0.784913" stroke-linecap="round" stroke-linejoin="round"/>
<path d="M591.774 40.8706V42.4404" stroke="#53389E" stroke-width="0.784913" stroke-linecap="round" stroke-linejoin="round"/>
<path d="M588.635 40.8706V42.4404" stroke="#53389E" stroke-width="0.784913" stroke-linecap="round" stroke-linejoin="round"/>
<path d="M586.672 44.0103H593.737" stroke="#53389E" stroke-width="0.784913" stroke-linecap="round" stroke-linejoin="round"/>
<rect x="549.376" y="34.9404" width="51.9297" height="19.7095" rx="2.35474" stroke="#ADB3BD" stroke-width="0.672783"/>
<g clip-path="url(#clip0_3025_182351)">
<path d="M37.7628 49.8381H35.7855L38.7983 41.1109H41.1761L44.1847 49.8381H42.2074L40.0213 43.1052H39.9531L37.7628 49.8381ZM37.6392 46.4077H42.3097V47.8481H37.6392V46.4077ZM47.8537 49.966C47.1832 49.966 46.6065 49.8239 46.1236 49.5398C45.6435 49.2529 45.2741 48.8552 45.0156 48.3467C44.7599 47.8381 44.6321 47.2529 44.6321 46.591C44.6321 45.9205 44.7614 45.3325 45.0199 44.8268C45.2813 44.3182 45.652 43.9219 46.1321 43.6379C46.6122 43.3509 47.1832 43.2075 47.8452 43.2075C48.4162 43.2075 48.9162 43.3111 49.3452 43.5185C49.7741 43.7259 50.1136 44.0171 50.3636 44.3921C50.6136 44.7671 50.7514 45.2075 50.777 45.7131H49.0639C49.0156 45.3864 48.8878 45.1236 48.6804 44.9248C48.4759 44.7231 48.2074 44.6222 47.875 44.6222C47.5938 44.6222 47.348 44.6989 47.1378 44.8523C46.9304 45.0029 46.7685 45.2231 46.652 45.5129C46.5355 45.8026 46.4773 46.1535 46.4773 46.5654C46.4773 46.983 46.5341 47.3381 46.6477 47.6307C46.7642 47.9234 46.9276 48.1464 47.1378 48.2998C47.348 48.4532 47.5938 48.5299 47.875 48.5299C48.0824 48.5299 48.2685 48.4873 48.4332 48.4021C48.6009 48.3168 48.7386 48.1932 48.8466 48.0313C48.9574 47.8665 49.0298 47.6691 49.0639 47.439H50.777C50.7486 47.939 50.6122 48.3793 50.3679 48.76C50.1264 49.1379 49.7926 49.4333 49.3665 49.6464C48.9403 49.8594 48.4361 49.966 47.8537 49.966ZM55.4208 43.2927V44.6563H51.479V43.2927H55.4208ZM52.3739 41.7245H54.1893V47.8268C54.1893 47.9944 54.2148 48.1251 54.266 48.2188C54.3171 48.3097 54.3881 48.3736 54.479 48.4106C54.5728 48.4475 54.6808 48.466 54.8029 48.466C54.8881 48.466 54.9734 48.4589 55.0586 48.4447C55.1438 48.4276 55.2092 48.4148 55.2546 48.4063L55.5401 49.7572C55.4492 49.7856 55.3214 49.8182 55.1566 49.8552C54.9918 49.895 54.7915 49.9191 54.5558 49.9276C54.1183 49.9447 53.7347 49.8864 53.4052 49.7529C53.0785 49.6194 52.8242 49.412 52.6424 49.1307C52.4606 48.8495 52.3711 48.4944 52.3739 48.0654V41.7245ZM56.6033 49.8381V43.2927H58.4187V49.8381H56.6033ZM57.5153 42.4489C57.2454 42.4489 57.0138 42.3594 56.8207 42.1805C56.6303 41.9986 56.5352 41.7813 56.5352 41.5285C56.5352 41.2785 56.6303 41.064 56.8207 40.885C57.0138 40.7032 57.2454 40.6123 57.5153 40.6123C57.7852 40.6123 58.0153 40.7032 58.2056 40.885C58.3988 41.064 58.4954 41.2785 58.4954 41.5285C58.4954 41.7813 58.3988 41.9986 58.2056 42.1805C58.0153 42.3594 57.7852 42.4489 57.5153 42.4489ZM65.9751 43.2927L63.6868 49.8381H61.6413L59.353 43.2927H61.2706L62.63 47.9759H62.6982L64.0533 43.2927H65.9751ZM66.9041 49.8381V43.2927H68.7195V49.8381H66.9041ZM67.8161 42.4489C67.5462 42.4489 67.3146 42.3594 67.1214 42.1805C66.9311 41.9986 66.8359 41.7813 66.8359 41.5285C66.8359 41.2785 66.9311 41.064 67.1214 40.885C67.3146 40.7032 67.5462 40.6123 67.8161 40.6123C68.0859 40.6123 68.3161 40.7032 68.5064 40.885C68.6996 41.064 68.7962 41.2785 68.7962 41.5285C68.7962 41.7813 68.6996 41.9986 68.5064 42.1805C68.3161 42.3594 68.0859 42.4489 67.8161 42.4489ZM73.6552 43.2927V44.6563H69.7134V43.2927H73.6552ZM70.6083 41.7245H72.4237V47.8268C72.4237 47.9944 72.4492 48.1251 72.5004 48.2188C72.5515 48.3097 72.6225 48.3736 72.7134 48.4106C72.8072 48.4475 72.9151 48.466 73.0373 48.466C73.1225 48.466 73.2077 48.4589 73.293 48.4447C73.3782 48.4276 73.4435 48.4148 73.489 48.4063L73.7745 49.7572C73.6836 49.7856 73.5558 49.8182 73.391 49.8552C73.2262 49.895 73.0259 49.9191 72.7901 49.9276C72.3526 49.9447 71.9691 49.8864 71.6396 49.7529C71.3129 49.6194 71.0586 49.412 70.8768 49.1307C70.695 48.8495 70.6055 48.4944 70.6083 48.0654V41.7245ZM74.8377 49.8381V43.2927H76.6531V49.8381H74.8377ZM75.7496 42.4489C75.4798 42.4489 75.2482 42.3594 75.055 42.1805C74.8647 41.9986 74.7695 41.7813 74.7695 41.5285C74.7695 41.2785 74.8647 41.064 75.055 40.885C75.2482 40.7032 75.4798 40.6123 75.7496 40.6123C76.0195 40.6123 76.2496 40.7032 76.44 40.885C76.6332 41.064 76.7298 41.2785 76.7298 41.5285C76.7298 41.7813 76.6332 41.9986 76.44 42.1805C76.2496 42.3594 76.0195 42.4489 75.7496 42.4489ZM81.0902 49.966C80.4169 49.966 79.8374 49.8296 79.3516 49.5569C78.8686 49.2813 78.4964 48.8921 78.2351 48.3893C77.9737 47.8836 77.843 47.2856 77.843 46.5952C77.843 45.9219 77.9737 45.331 78.2351 44.8225C78.4964 44.314 78.8643 43.9177 79.3388 43.6336C79.8161 43.3495 80.3757 43.2075 81.0178 43.2075C81.4496 43.2075 81.8516 43.2771 82.2237 43.4163C82.5987 43.5526 82.9254 43.7586 83.2038 44.0342C83.4851 44.3097 83.7038 44.6563 83.8601 45.0739C84.0163 45.4887 84.0945 45.9745 84.0945 46.5313V47.0299H78.5675V45.9049H82.3857C82.3857 45.6435 82.3288 45.412 82.2152 45.2103C82.1016 45.0086 81.9439 44.8509 81.7422 44.7373C81.5433 44.6208 81.3118 44.5626 81.0476 44.5626C80.772 44.5626 80.5277 44.6265 80.3146 44.7543C80.1044 44.8793 79.9396 45.0484 79.8203 45.2614C79.701 45.4717 79.6399 45.706 79.6371 45.9646V47.0342C79.6371 47.358 79.6967 47.6379 79.8161 47.8736C79.9382 48.1094 80.1101 48.2913 80.3317 48.4191C80.5533 48.5469 80.8161 48.6109 81.12 48.6109C81.3217 48.6109 81.5064 48.5825 81.674 48.5256C81.8416 48.4688 81.9851 48.3836 82.1044 48.27C82.2237 48.1563 82.3146 48.0171 82.3771 47.8523L84.0561 47.9631C83.9709 48.3665 83.7962 48.7188 83.532 49.02C83.2706 49.3182 82.9325 49.5512 82.5178 49.7188C82.1058 49.8836 81.63 49.966 81.0902 49.966ZM90.7251 45.1592L89.0632 45.2614C89.0348 45.1194 88.9737 44.9915 88.88 44.8779C88.7862 44.7614 88.6626 44.6691 88.5092 44.6009C88.3587 44.5299 88.1783 44.4944 87.968 44.4944C87.6868 44.4944 87.4496 44.554 87.2564 44.6734C87.0632 44.7898 86.9666 44.9461 86.9666 45.1421C86.9666 45.2984 87.0291 45.4305 87.1541 45.5384C87.2791 45.6464 87.4936 45.733 87.7976 45.7984L88.9822 46.037C89.6186 46.1677 90.093 46.3779 90.4055 46.6677C90.718 46.9575 90.8743 47.3381 90.8743 47.8097C90.8743 48.2387 90.7479 48.6151 90.495 48.939C90.245 49.2629 89.9013 49.5157 89.4638 49.6975C89.0291 49.8765 88.5277 49.966 87.9595 49.966C87.093 49.966 86.4027 49.7856 85.8885 49.4248C85.3771 49.0611 85.0774 48.5668 84.9893 47.9418L86.7749 47.8481C86.8288 48.1123 86.9595 48.314 87.1669 48.4532C87.3743 48.5896 87.6399 48.6577 87.9638 48.6577C88.282 48.6577 88.5376 48.5967 88.7308 48.4745C88.9268 48.3495 89.0263 48.189 89.0291 47.993C89.0263 47.8282 88.9567 47.6932 88.8203 47.5881C88.6839 47.4802 88.4737 47.3978 88.1896 47.341L87.0561 47.1151C86.4169 46.9873 85.9411 46.7657 85.6286 46.4504C85.3189 46.135 85.1641 45.733 85.1641 45.2444C85.1641 44.8239 85.2777 44.4617 85.505 44.1577C85.7351 43.8538 86.0575 43.6194 86.4723 43.4546C86.8899 43.2898 87.3786 43.2075 87.9382 43.2075C88.7649 43.2075 89.4155 43.3822 89.8899 43.7316C90.3672 44.081 90.6456 44.5569 90.7251 45.1592Z" fill="#5A6B74"/>
<path fill-rule="evenodd" clip-rule="evenodd" d="M104.283 50.384C107.07 50.384 109.329 48.1249 109.329 45.3381C109.329 42.5514 107.07 40.2922 104.283 40.2922C101.496 40.2922 99.2373 42.5514 99.2373 45.3381C99.2373 48.1249 101.496 50.384 104.283 50.384Z" stroke="#D0D1D2" stroke-width="1.00917" stroke-linecap="round" stroke-linejoin="round"/>
<path d="M104.283 43.3196V45.3379" stroke="#D0D1D2" stroke-width="1.00917" stroke-linecap="round" stroke-linejoin="round"/>
<circle cx="104.283" cy="47.3564" r="0.504587" fill="#D0D1D2"/>
</g>
<path d="M62 270.04C93.2092 275.838 89.6286 145.306 130.721 140.281C171.813 135.256 173.774 185.243 192.5 195.293C211.226 205.343 229.03 236.327 260.239 233.235C291.448 230.143 307.053 199.158 333.06 195.293C359.068 191.428 364.27 165.792 388.717 146.852C413.164 127.911 435.531 125.592 466.22 129.458C496.909 133.323 505.231 172.405 519.796 173.951C534.36 175.497 547.364 156.86 559.847 152.608C572.331 148.356 575.972 129.458 602.5 129.458" stroke="#D7C6FE" stroke-width="2" stroke-linecap="round" stroke-linejoin="round"/>
<path d="M60.5 203.45C91.7092 197.652 89.6286 232.095 130.721 237.12C171.813 242.145 183.256 206.97 201.982 196.92C220.707 186.87 229.03 141.073 260.239 144.166C291.448 147.258 307.053 178.242 333.06 182.108C359.068 185.973 364.27 211.608 388.717 230.549C413.164 249.489 435.531 251.808 466.22 247.943C496.909 244.078 505.231 204.996 519.796 203.45C534.36 201.904 547.364 220.541 559.847 224.793C572.331 229.044 575.972 247.943 602.5 247.943" stroke="#ADB3BD" stroke-width="2" stroke-linecap="round" stroke-linejoin="round"/>
<path d="M37.0824 91.4895V90.765L40.2784 85.7082H40.804V86.8304H40.4489L38.0341 90.6514V90.7082H42.3381V91.4895H37.0824ZM40.5057 92.981V91.2693V90.932V85.7082H41.3438V92.981H40.5057ZM44.4643 90.9923L44.4501 89.9554H44.6206L47.0069 87.5264H48.0439L45.5012 90.0974H45.4302L44.4643 90.9923ZM43.6831 92.981V85.7082H44.5211V92.981H43.6831ZM47.149 92.981L45.0183 90.2821L45.6149 89.6997L48.2143 92.981H47.149Z" fill="#858D9D"/>
<path d="M39.7102 153.206C39.2415 153.206 38.8236 153.126 38.4567 152.965C38.0921 152.804 37.8021 152.58 37.5866 152.293C37.3736 152.005 37.2576 151.67 37.2386 151.289H38.1335C38.1525 151.523 38.233 151.725 38.375 151.896C38.517 152.064 38.7029 152.194 38.9325 152.286C39.1622 152.379 39.4167 152.425 39.696 152.425C40.0085 152.425 40.2855 152.37 40.527 152.262C40.7685 152.153 40.9579 152.001 41.0952 151.807C41.2325 151.613 41.3011 151.388 41.3011 151.132C41.3011 150.865 41.2348 150.629 41.1023 150.426C40.9697 150.22 40.7756 150.059 40.5199 149.943C40.2642 149.827 39.9517 149.769 39.5824 149.769H39V148.987H39.5824C39.8712 148.987 40.1245 148.935 40.3423 148.831C40.5625 148.727 40.7341 148.58 40.8572 148.391C40.9827 148.201 41.0455 147.979 41.0455 147.723C41.0455 147.477 40.991 147.263 40.8821 147.08C40.7732 146.898 40.6193 146.756 40.4205 146.654C40.224 146.552 39.992 146.502 39.7244 146.502C39.4735 146.502 39.2367 146.548 39.0142 146.64C38.794 146.73 38.6141 146.861 38.4744 147.034C38.3348 147.205 38.259 147.411 38.2472 147.652H37.3949C37.4091 147.271 37.5239 146.937 37.7393 146.651C37.9548 146.362 38.2365 146.137 38.5845 145.976C38.9349 145.815 39.3196 145.735 39.7386 145.735C40.1884 145.735 40.5743 145.826 40.8963 146.008C41.2183 146.188 41.4657 146.426 41.6385 146.722C41.8113 147.018 41.8977 147.337 41.8977 147.681C41.8977 148.09 41.79 148.439 41.5746 148.728C41.3615 149.017 41.0715 149.217 40.7045 149.328V149.385C41.1638 149.461 41.5225 149.656 41.7805 149.971C42.0386 150.284 42.1676 150.671 42.1676 151.132C42.1676 151.528 42.0599 151.883 41.8445 152.198C41.6314 152.51 41.3402 152.756 40.9709 152.936C40.6016 153.116 40.1813 153.206 39.7102 153.206ZM44.4155 151.118L44.4013 150.081H44.5717L46.9581 147.652H47.995L45.4524 150.223H45.3814L44.4155 151.118ZM43.6342 153.107V145.834H44.4723V153.107H43.6342ZM47.1001 153.107L44.9695 150.408L45.5661 149.825L48.1655 153.107H47.1001Z" fill="#858D9D"/>
<path d="M37.2528 213.232V212.593L39.6534 209.965C39.9351 209.657 40.1671 209.39 40.3494 209.163C40.5317 208.933 40.6667 208.717 40.7543 208.516C40.8442 208.313 40.8892 208.1 40.8892 207.877C40.8892 207.621 40.8277 207.4 40.7045 207.213C40.5838 207.026 40.4181 206.882 40.2074 206.78C39.9967 206.678 39.7599 206.627 39.4972 206.627C39.2178 206.627 38.974 206.685 38.7656 206.801C38.5597 206.915 38.3999 207.075 38.2862 207.28C38.175 207.486 38.1193 207.728 38.1193 208.005H37.2812C37.2812 207.579 37.3795 207.205 37.576 206.883C37.7725 206.561 38.04 206.31 38.3786 206.13C38.7195 205.95 39.1018 205.86 39.5256 205.86C39.9517 205.86 40.3293 205.95 40.6584 206.13C40.9875 206.31 41.2455 206.552 41.4325 206.858C41.6196 207.163 41.7131 207.503 41.7131 207.877C41.7131 208.145 41.6645 208.406 41.5675 208.662C41.4728 208.915 41.3071 209.198 41.0703 209.511C40.8359 209.821 40.5104 210.2 40.0938 210.647L38.4602 212.394V212.451H41.8409V213.232H37.2528ZM44.103 211.244L44.0888 210.207H44.2592L46.6456 207.778H47.6825L45.1399 210.349H45.0689L44.103 211.244ZM43.3217 213.232V205.959H44.1598V213.232H43.3217ZM46.7876 213.232L44.657 210.533L45.2536 209.951L47.853 213.232H46.7876Z" fill="#858D9D"/>
<path d="M39.8097 266.085V273.358H38.929V267.008H38.8864L37.1108 268.187V267.293L38.929 266.085H39.8097ZM42.6967 271.369L42.6825 270.332H42.853L45.2393 267.903H46.2763L43.7337 270.474H43.6626L42.6967 271.369ZM41.9155 273.358V266.085H42.7536V273.358H41.9155ZM45.3814 273.358L43.2507 270.659L43.8473 270.077L46.4467 273.358H45.3814Z" fill="#858D9D"/>
<line x1="59.9043" y1="90.8306" x2="602.5" y2="90.8306" stroke="#ADB3BD" stroke-width="0.672783"/>
<line x1="59.9043" y1="150.956" x2="602.5" y2="150.956" stroke="#ADB3BD" stroke-width="0.672783"/>
<line x1="59.9043" y1="211.082" x2="602.5" y2="211.082" stroke="#ADB3BD" stroke-width="0.672783"/>
<line x1="59.9043" y1="271.208" x2="602.5" y2="271.208" stroke="#ADB3BD" stroke-width="0.672783"/>
<path d="M59.9043 258.011C83.7698 252.862 103.395 221.468 131.871 216.191C147.048 213.378 159.207 218.852 172.772 227.358C186.338 235.864 183.683 239.537 214.192 246.094C239.369 251.505 245.955 193.164 270.626 195.405C295.297 197.647 306.708 127.503 332.755 133.358C358.803 139.213 364.007 124.075 388.492 152.766C412.976 181.457 435.597 114.58 466.333 108.724C497.069 102.869 505.074 165.017 519.661 162.675C534.247 160.332 547.381 204.617 559.883 211.058C572.386 217.499 575.932 194.101 602.5 194.101" stroke="#53389E" stroke-width="2" stroke-linecap="round" stroke-linejoin="round"/>
<path d="M131.871 216.191C103.395 221.468 83.7698 252.862 59.9043 258.011V270.709H602.5V194.101C575.932 194.101 572.386 217.499 559.883 211.058C547.381 204.617 534.247 160.332 519.661 162.675C505.074 165.017 497.069 102.869 466.333 108.724C435.597 114.58 412.976 181.457 388.492 152.766C364.007 124.075 358.803 139.213 332.755 133.358C306.708 127.503 295.297 197.647 270.626 195.405C245.955 193.164 239.369 251.505 214.192 246.094C183.683 239.537 186.338 235.864 172.772 227.358C159.207 218.852 147.048 213.378 131.871 216.191Z" fill="url(#paint0_linear_3025_182351)"/>
<path d="M63.1648 291.726H64.0455V296.925C64.0455 297.389 63.9602 297.783 63.7898 298.107C63.6193 298.432 63.379 298.678 63.0689 298.846C62.7588 299.014 62.393 299.098 61.9716 299.098C61.5739 299.098 61.2199 299.026 60.9098 298.882C60.5997 298.735 60.3558 298.526 60.1783 298.257C60.0007 297.987 59.9119 297.666 59.9119 297.294H60.7784C60.7784 297.5 60.8293 297.68 60.9311 297.834C61.0353 297.986 61.1773 298.104 61.3572 298.189C61.5372 298.274 61.742 298.317 61.9716 298.317C62.2249 298.317 62.4403 298.264 62.6179 298.157C62.7955 298.051 62.9304 297.894 63.0227 297.688C63.1174 297.48 63.1648 297.226 63.1648 296.925V291.726ZM67.3018 299.127C66.9562 299.127 66.6425 299.062 66.3608 298.931C66.0791 298.799 65.8554 298.608 65.6896 298.36C65.5239 298.109 65.4411 297.806 65.4411 297.45C65.4411 297.138 65.5026 296.885 65.6257 296.691C65.7488 296.494 65.9134 296.34 66.1193 296.229C66.3253 296.118 66.5526 296.035 66.8011 295.98C67.0521 295.923 67.3042 295.879 67.5575 295.845C67.889 295.803 68.1577 295.771 68.3636 295.749C68.572 295.726 68.7235 295.687 68.8182 295.632C68.9152 295.578 68.9638 295.483 68.9638 295.348V295.32C68.9638 294.969 68.8679 294.697 68.6761 294.503C68.4867 294.309 68.1991 294.212 67.8132 294.212C67.4131 294.212 67.0994 294.299 66.8722 294.475C66.6449 294.65 66.4851 294.837 66.3928 295.036L65.5973 294.752C65.7393 294.42 65.9287 294.162 66.1655 293.977C66.4046 293.79 66.665 293.66 66.9467 293.587C67.2308 293.511 67.5102 293.473 67.7848 293.473C67.96 293.473 68.1612 293.495 68.3885 293.537C68.6181 293.577 68.8395 293.661 69.0526 293.789C69.268 293.917 69.4467 294.11 69.5888 294.368C69.7308 294.626 69.8018 294.972 69.8018 295.405V298.999H68.9638V298.26H68.9212C68.8643 298.379 68.7696 298.505 68.6371 298.64C68.5045 298.775 68.3281 298.89 68.108 298.985C67.8878 299.079 67.6191 299.127 67.3018 299.127ZM67.4297 298.374C67.7611 298.374 68.0405 298.309 68.2678 298.178C68.4974 298.048 68.6702 297.88 68.7862 297.674C68.9046 297.468 68.9638 297.252 68.9638 297.024V296.257C68.9283 296.3 68.8501 296.339 68.7294 296.374C68.611 296.408 68.4737 296.437 68.3175 296.463C68.1636 296.487 68.0133 296.508 67.8665 296.527C67.7221 296.544 67.6049 296.558 67.5149 296.57C67.2971 296.598 67.0935 296.644 66.9041 296.708C66.7171 296.77 66.5656 296.863 66.4496 296.989C66.3359 297.112 66.2791 297.28 66.2791 297.493C66.2791 297.784 66.3868 298.004 66.6023 298.154C66.8201 298.3 67.0959 298.374 67.4297 298.374ZM72.1696 295.718V298.999H71.3315V293.544H72.1412V294.397H72.2122C72.34 294.12 72.5342 293.897 72.7946 293.729C73.055 293.558 73.3912 293.473 73.8031 293.473C74.1724 293.473 74.4956 293.549 74.7725 293.7C75.0495 293.85 75.265 294.077 75.4189 294.382C75.5727 294.685 75.6497 295.069 75.6497 295.533V298.999H74.8116V295.59C74.8116 295.161 74.7003 294.827 74.4778 294.588C74.2553 294.347 73.9499 294.226 73.5616 294.226C73.2941 294.226 73.055 294.284 72.8443 294.4C72.6359 294.516 72.4714 294.685 72.3507 294.908C72.2299 295.13 72.1696 295.4 72.1696 295.718Z" fill="#5A6B74"/>
<path d="M118.131 298.999V291.726H122.491V292.507H119.011V294.965H122.165V295.746H119.011V298.999H118.131ZM125.773 299.112C125.247 299.112 124.794 298.996 124.413 298.764C124.034 298.53 123.741 298.203 123.536 297.784C123.332 297.363 123.23 296.873 123.23 296.314C123.23 295.755 123.332 295.263 123.536 294.837C123.741 294.408 124.028 294.075 124.395 293.835C124.764 293.594 125.195 293.473 125.688 293.473C125.972 293.473 126.252 293.521 126.529 293.615C126.806 293.71 127.058 293.864 127.286 294.077C127.513 294.288 127.694 294.567 127.829 294.915C127.964 295.263 128.031 295.691 128.031 296.2V296.556H123.827V295.831H127.179C127.179 295.523 127.117 295.249 126.994 295.007C126.874 294.766 126.701 294.575 126.476 294.436C126.253 294.296 125.991 294.226 125.688 294.226C125.354 294.226 125.065 294.309 124.821 294.475C124.58 294.638 124.394 294.851 124.263 295.114C124.133 295.377 124.068 295.658 124.068 295.959V296.442C124.068 296.854 124.139 297.203 124.281 297.49C124.426 297.774 124.626 297.99 124.881 298.139C125.137 298.286 125.434 298.36 125.773 298.36C125.993 298.36 126.192 298.329 126.369 298.267C126.549 298.203 126.704 298.109 126.835 297.983C126.965 297.855 127.065 297.697 127.136 297.507L127.946 297.735C127.861 298.009 127.718 298.251 127.516 298.459C127.315 298.665 127.067 298.826 126.771 298.942C126.475 299.056 126.142 299.112 125.773 299.112ZM129.42 298.999V291.726H130.258V294.411H130.329C130.39 294.316 130.476 294.195 130.585 294.048C130.696 293.899 130.854 293.767 131.06 293.651C131.269 293.532 131.55 293.473 131.906 293.473C132.365 293.473 132.77 293.588 133.12 293.818C133.47 294.047 133.744 294.373 133.94 294.794C134.137 295.216 134.235 295.713 134.235 296.286C134.235 296.863 134.137 297.364 133.94 297.788C133.744 298.209 133.472 298.536 133.124 298.768C132.776 298.998 132.374 299.112 131.92 299.112C131.569 299.112 131.289 299.054 131.078 298.938C130.867 298.82 130.705 298.686 130.592 298.537C130.478 298.386 130.39 298.26 130.329 298.161H130.229V298.999H129.42ZM130.244 296.272C130.244 296.683 130.304 297.047 130.425 297.362C130.545 297.674 130.722 297.919 130.954 298.097C131.186 298.272 131.47 298.36 131.806 298.36C132.156 298.36 132.449 298.267 132.683 298.083C132.92 297.896 133.098 297.645 133.216 297.33C133.337 297.013 133.397 296.66 133.397 296.272C133.397 295.888 133.338 295.542 133.219 295.235C133.103 294.924 132.927 294.679 132.69 294.499C132.456 294.317 132.161 294.226 131.806 294.226C131.465 294.226 131.179 294.312 130.947 294.485C130.715 294.656 130.54 294.895 130.421 295.203C130.303 295.508 130.244 295.864 130.244 296.272Z" fill="#5A6B74"/>
<path d="M176.255 291.726H177.306L179.777 297.763H179.863L182.334 291.726H183.385V298.999H182.562V293.473H182.491L180.218 298.999H179.422L177.15 293.473H177.079V298.999H176.255V291.726ZM186.643 299.127C186.297 299.127 185.983 299.062 185.702 298.931C185.42 298.799 185.196 298.608 185.03 298.36C184.865 298.109 184.782 297.806 184.782 297.45C184.782 297.138 184.843 296.885 184.967 296.691C185.09 296.494 185.254 296.34 185.46 296.229C185.666 296.118 185.893 296.035 186.142 295.98C186.393 295.923 186.645 295.879 186.898 295.845C187.23 295.803 187.498 295.771 187.704 295.749C187.913 295.726 188.064 295.687 188.159 295.632C188.256 295.578 188.305 295.483 188.305 295.348V295.32C188.305 294.969 188.209 294.697 188.017 294.503C187.828 294.309 187.54 294.212 187.154 294.212C186.754 294.212 186.44 294.299 186.213 294.475C185.986 294.65 185.826 294.837 185.734 295.036L184.938 294.752C185.08 294.42 185.27 294.162 185.506 293.977C185.745 293.79 186.006 293.66 186.288 293.587C186.572 293.511 186.851 293.473 187.126 293.473C187.301 293.473 187.502 293.495 187.729 293.537C187.959 293.577 188.18 293.661 188.393 293.789C188.609 293.917 188.788 294.11 188.93 294.368C189.072 294.626 189.143 294.972 189.143 295.405V298.999H188.305V298.26H188.262C188.205 298.379 188.11 298.505 187.978 298.64C187.845 298.775 187.669 298.89 187.449 298.985C187.229 299.079 186.96 299.127 186.643 299.127ZM186.771 298.374C187.102 298.374 187.381 298.309 187.609 298.178C187.838 298.048 188.011 297.88 188.127 297.674C188.245 297.468 188.305 297.252 188.305 297.024V296.257C188.269 296.3 188.191 296.339 188.07 296.374C187.952 296.408 187.815 296.437 187.658 296.463C187.504 296.487 187.354 296.508 187.207 296.527C187.063 296.544 186.946 296.558 186.856 296.57C186.638 296.598 186.434 296.644 186.245 296.708C186.058 296.77 185.906 296.863 185.79 296.989C185.677 297.112 185.62 297.28 185.62 297.493C185.62 297.784 185.728 298.004 185.943 298.154C186.161 298.3 186.437 298.374 186.771 298.374ZM190.672 298.999V293.544H191.482V294.368H191.539C191.638 294.098 191.818 293.879 192.079 293.711C192.339 293.543 192.633 293.459 192.959 293.459C193.021 293.459 193.098 293.46 193.19 293.463C193.282 293.465 193.352 293.468 193.4 293.473V294.325C193.371 294.318 193.306 294.308 193.204 294.294C193.105 294.277 192.999 294.269 192.888 294.269C192.623 294.269 192.386 294.324 192.178 294.436C191.972 294.544 191.809 294.696 191.688 294.89C191.57 295.082 191.51 295.301 191.51 295.547V298.999H190.672Z" fill="#5A6B74"/>
<path d="M235.393 298.999H234.47L237.14 291.726H238.049L240.72 298.999H239.796L237.623 292.877H237.566L235.393 298.999ZM235.734 296.158H239.455V296.939H235.734V296.158ZM241.739 301.044V293.544H242.548V294.411H242.648C242.709 294.316 242.795 294.195 242.903 294.048C243.015 293.899 243.173 293.767 243.379 293.651C243.588 293.532 243.869 293.473 244.225 293.473C244.684 293.473 245.089 293.588 245.439 293.818C245.789 294.047 246.063 294.373 246.259 294.794C246.456 295.216 246.554 295.713 246.554 296.286C246.554 296.863 246.456 297.364 246.259 297.788C246.063 298.209 245.791 298.536 245.443 298.768C245.095 298.998 244.693 299.112 244.239 299.112C243.888 299.112 243.608 299.054 243.397 298.938C243.186 298.82 243.024 298.686 242.911 298.537C242.797 298.386 242.709 298.26 242.648 298.161H242.577V301.044H241.739ZM242.563 296.272C242.563 296.683 242.623 297.047 242.744 297.362C242.864 297.674 243.041 297.919 243.273 298.097C243.505 298.272 243.789 298.36 244.125 298.36C244.475 298.36 244.768 298.267 245.002 298.083C245.239 297.896 245.417 297.645 245.535 297.33C245.656 297.013 245.716 296.66 245.716 296.272C245.716 295.888 245.657 295.542 245.538 295.235C245.422 294.924 245.246 294.679 245.009 294.499C244.775 294.317 244.48 294.226 244.125 294.226C243.784 294.226 243.498 294.312 243.266 294.485C243.034 294.656 242.859 294.895 242.74 295.203C242.622 295.508 242.563 295.864 242.563 296.272ZM247.832 298.999V293.544H248.642V294.368H248.699C248.798 294.098 248.978 293.879 249.239 293.711C249.499 293.543 249.793 293.459 250.119 293.459C250.181 293.459 250.258 293.46 250.35 293.463C250.443 293.465 250.512 293.468 250.56 293.473V294.325C250.531 294.318 250.466 294.308 250.364 294.294C250.265 294.277 250.16 294.269 250.048 294.269C249.783 294.269 249.546 294.324 249.338 294.436C249.132 294.544 248.969 294.696 248.848 294.89C248.73 295.082 248.671 295.301 248.671 295.547V298.999H247.832Z" fill="#5A6B74"/>
<path d="M291.43 291.726H292.481L294.952 297.763H295.037L297.509 291.726H298.56V298.999H297.736V293.473H297.665L295.393 298.999H294.597L292.324 293.473H292.253V298.999H291.43V291.726ZM301.817 299.127C301.472 299.127 301.158 299.062 300.876 298.931C300.595 298.799 300.371 298.608 300.205 298.36C300.04 298.109 299.957 297.806 299.957 297.45C299.957 297.138 300.018 296.885 300.141 296.691C300.264 296.494 300.429 296.34 300.635 296.229C300.841 296.118 301.068 296.035 301.317 295.98C301.568 295.923 301.82 295.879 302.073 295.845C302.405 295.803 302.673 295.771 302.879 295.749C303.088 295.726 303.239 295.687 303.334 295.632C303.431 295.578 303.479 295.483 303.479 295.348V295.32C303.479 294.969 303.384 294.697 303.192 294.503C303.002 294.309 302.715 294.212 302.329 294.212C301.929 294.212 301.615 294.299 301.388 294.475C301.161 294.65 301.001 294.837 300.908 295.036L300.113 294.752C300.255 294.42 300.444 294.162 300.681 293.977C300.92 293.79 301.181 293.66 301.462 293.587C301.746 293.511 302.026 293.473 302.3 293.473C302.476 293.473 302.677 293.495 302.904 293.537C303.134 293.577 303.355 293.661 303.568 293.789C303.784 293.917 303.962 294.11 304.104 294.368C304.246 294.626 304.317 294.972 304.317 295.405V298.999H303.479V298.26H303.437C303.38 298.379 303.285 298.505 303.153 298.64C303.02 298.775 302.844 298.89 302.624 298.985C302.403 299.079 302.135 299.127 301.817 299.127ZM301.945 298.374C302.277 298.374 302.556 298.309 302.783 298.178C303.013 298.048 303.186 297.88 303.302 297.674C303.42 297.468 303.479 297.252 303.479 297.024V296.257C303.444 296.3 303.366 296.339 303.245 296.374C303.127 296.408 302.989 296.437 302.833 296.463C302.679 296.487 302.529 296.508 302.382 296.527C302.238 296.544 302.121 296.558 302.031 296.57C301.813 296.598 301.609 296.644 301.42 296.708C301.233 296.77 301.081 296.863 300.965 296.989C300.852 297.112 300.795 297.28 300.795 297.493C300.795 297.784 300.902 298.004 301.118 298.154C301.336 298.3 301.612 298.374 301.945 298.374ZM306.192 301.044C306.05 301.044 305.923 301.032 305.812 301.009C305.7 300.987 305.623 300.966 305.581 300.945L305.794 300.206C305.997 300.258 306.177 300.277 306.334 300.263C306.49 300.249 306.628 300.179 306.749 300.053C306.872 299.93 306.985 299.73 307.086 299.453L307.243 299.027L305.226 293.544H306.135L307.64 297.891H307.697L309.203 293.544H310.112L307.797 299.794C307.693 300.076 307.564 300.309 307.41 300.494C307.256 300.681 307.077 300.819 306.873 300.909C306.672 300.999 306.445 301.044 306.192 301.044Z" fill="#5A6B74"/>
<path d="M354.12 291.726H355.001V296.925C355.001 297.389 354.915 297.783 354.745 298.107C354.574 298.432 354.334 298.678 354.024 298.846C353.714 299.014 353.348 299.098 352.927 299.098C352.529 299.098 352.175 299.026 351.865 298.882C351.555 298.735 351.311 298.526 351.133 298.257C350.956 297.987 350.867 297.666 350.867 297.294H351.733C351.733 297.5 351.784 297.68 351.886 297.834C351.99 297.986 352.132 298.104 352.312 298.189C352.492 298.274 352.697 298.317 352.927 298.317C353.18 298.317 353.395 298.264 353.573 298.157C353.751 298.051 353.885 297.894 353.978 297.688C354.073 297.48 354.12 297.226 354.12 296.925V291.726ZM360.089 296.769V293.544H360.927V298.999H360.089V298.075H360.032C359.905 298.352 359.706 298.588 359.436 298.782C359.166 298.974 358.825 299.07 358.413 299.07C358.072 299.07 357.769 298.995 357.504 298.846C357.239 298.695 357.031 298.467 356.879 298.164C356.728 297.859 356.652 297.474 356.652 297.01V293.544H357.49V296.953C357.49 297.351 357.601 297.668 357.824 297.905C358.049 298.142 358.335 298.26 358.683 298.26C358.891 298.26 359.103 298.207 359.319 298.1C359.537 297.994 359.719 297.83 359.866 297.61C360.015 297.39 360.089 297.11 360.089 296.769ZM363.3 295.718V298.999H362.462V293.544H363.272V294.397H363.343C363.471 294.12 363.665 293.897 363.925 293.729C364.186 293.558 364.522 293.473 364.934 293.473C365.303 293.473 365.626 293.549 365.903 293.7C366.18 293.85 366.396 294.077 366.55 294.382C366.704 294.685 366.781 295.069 366.781 295.533V298.999H365.942V295.59C365.942 295.161 365.831 294.827 365.609 294.588C365.386 294.347 365.081 294.226 364.692 294.226C364.425 294.226 364.186 294.284 363.975 294.4C363.767 294.516 363.602 294.685 363.482 294.908C363.361 295.13 363.3 295.4 363.3 295.718Z" fill="#5A6B74"/>
<path d="M411.165 291.726H412.045V296.925C412.045 297.389 411.96 297.783 411.79 298.107C411.619 298.432 411.379 298.678 411.069 298.846C410.759 299.014 410.393 299.098 409.972 299.098C409.574 299.098 409.22 299.026 408.91 298.882C408.6 298.735 408.356 298.526 408.178 298.257C408.001 297.987 407.912 297.666 407.912 297.294H408.778C408.778 297.5 408.829 297.68 408.931 297.834C409.035 297.986 409.177 298.104 409.357 298.189C409.537 298.274 409.742 298.317 409.972 298.317C410.225 298.317 410.44 298.264 410.618 298.157C410.795 298.051 410.93 297.894 411.023 297.688C411.117 297.48 411.165 297.226 411.165 296.925V291.726ZM417.134 296.769V293.544H417.972V298.999H417.134V298.075H417.077C416.95 298.352 416.751 298.588 416.481 298.782C416.211 298.974 415.87 299.07 415.458 299.07C415.117 299.07 414.814 298.995 414.549 298.846C414.284 298.695 414.076 298.467 413.924 298.164C413.772 297.859 413.697 297.474 413.697 297.01V293.544H414.535V296.953C414.535 297.351 414.646 297.668 414.869 297.905C415.094 298.142 415.38 298.26 415.728 298.26C415.936 298.26 416.148 298.207 416.364 298.1C416.581 297.994 416.764 297.83 416.911 297.61C417.06 297.39 417.134 297.11 417.134 296.769ZM420.345 291.726V298.999H419.507V291.726H420.345Z" fill="#5A6B74"/>
<path d="M463.848 298.999H462.925L465.595 291.726H466.504L469.175 298.999H468.251L466.078 292.877H466.021L463.848 298.999ZM464.189 296.158H467.91V296.939H464.189V296.158ZM473.631 296.769V293.544H474.469V298.999H473.631V298.075H473.574C473.447 298.352 473.248 298.588 472.978 298.782C472.708 298.974 472.367 299.07 471.955 299.07C471.614 299.07 471.311 298.995 471.046 298.846C470.781 298.695 470.573 298.467 470.421 298.164C470.27 297.859 470.194 297.474 470.194 297.01V293.544H471.032V296.953C471.032 297.351 471.143 297.668 471.366 297.905C471.591 298.142 471.877 298.26 472.225 298.26C472.433 298.26 472.645 298.207 472.861 298.1C473.079 297.994 473.261 297.83 473.408 297.61C473.557 297.39 473.631 297.11 473.631 296.769ZM478.206 301.158C477.801 301.158 477.453 301.106 477.162 301.002C476.871 300.9 476.628 300.765 476.434 300.597C476.242 300.431 476.09 300.254 475.976 300.064L476.644 299.595C476.719 299.695 476.815 299.808 476.931 299.936C477.047 300.066 477.206 300.179 477.407 300.274C477.611 300.371 477.877 300.419 478.206 300.419C478.646 300.419 479.01 300.313 479.296 300.1C479.583 299.887 479.726 299.553 479.726 299.098V297.99H479.655C479.593 298.09 479.506 298.213 479.392 298.36C479.281 298.504 479.12 298.633 478.909 298.747C478.701 298.858 478.419 298.914 478.064 298.914C477.624 298.914 477.228 298.809 476.878 298.601C476.53 298.393 476.254 298.09 476.051 297.692C475.849 297.294 475.749 296.811 475.749 296.243C475.749 295.684 475.847 295.198 476.043 294.784C476.24 294.367 476.513 294.045 476.864 293.818C477.214 293.588 477.619 293.473 478.078 293.473C478.433 293.473 478.715 293.532 478.923 293.651C479.134 293.767 479.295 293.899 479.406 294.048C479.52 294.195 479.608 294.316 479.669 294.411H479.754V293.544H480.564V299.155C480.564 299.624 480.457 300.005 480.244 300.298C480.034 300.594 479.75 300.811 479.392 300.948C479.037 301.088 478.642 301.158 478.206 301.158ZM478.178 298.161C478.514 298.161 478.798 298.084 479.03 297.93C479.262 297.776 479.438 297.555 479.559 297.266C479.68 296.977 479.74 296.631 479.74 296.229C479.74 295.836 479.681 295.489 479.563 295.188C479.444 294.888 479.269 294.652 479.037 294.482C478.805 294.311 478.519 294.226 478.178 294.226C477.823 294.226 477.527 294.316 477.29 294.496C477.055 294.676 476.879 294.917 476.761 295.22C476.645 295.523 476.587 295.86 476.587 296.229C476.587 296.608 476.646 296.943 476.764 297.234C476.885 297.523 477.063 297.75 477.297 297.916C477.534 298.079 477.827 298.161 478.178 298.161Z" fill="#5A6B74"/>
<path d="M525.712 293.544C525.67 293.184 525.497 292.905 525.194 292.706C524.891 292.507 524.519 292.408 524.079 292.408C523.757 292.408 523.475 292.46 523.234 292.564C522.995 292.668 522.808 292.812 522.673 292.994C522.54 293.176 522.474 293.383 522.474 293.615C522.474 293.809 522.52 293.976 522.612 294.116C522.707 294.253 522.828 294.368 522.975 294.46C523.121 294.55 523.275 294.625 523.436 294.684C523.597 294.741 523.745 294.787 523.88 294.823L524.619 295.022C524.808 295.071 525.019 295.14 525.251 295.227C525.485 295.315 525.709 295.435 525.922 295.586C526.137 295.735 526.315 295.927 526.455 296.161C526.594 296.396 526.664 296.683 526.664 297.024C526.664 297.417 526.561 297.772 526.355 298.09C526.152 298.407 525.853 298.659 525.46 298.846C525.07 299.033 524.595 299.127 524.036 299.127C523.515 299.127 523.064 299.043 522.683 298.874C522.305 298.706 522.006 298.472 521.788 298.171C521.573 297.871 521.451 297.522 521.423 297.124H522.332C522.355 297.398 522.448 297.626 522.609 297.806C522.772 297.983 522.978 298.116 523.227 298.203C523.478 298.289 523.747 298.331 524.036 298.331C524.372 298.331 524.674 298.277 524.942 298.168C525.209 298.057 525.421 297.903 525.578 297.706C525.734 297.507 525.812 297.275 525.812 297.01C525.812 296.769 525.744 296.572 525.609 296.421C525.475 296.269 525.297 296.146 525.077 296.051C524.857 295.957 524.619 295.874 524.363 295.803L523.468 295.547C522.9 295.384 522.45 295.151 522.119 294.848C521.787 294.544 521.622 294.148 521.622 293.658C521.622 293.251 521.732 292.896 521.952 292.593C522.174 292.287 522.473 292.05 522.847 291.882C523.223 291.712 523.643 291.627 524.107 291.627C524.576 291.627 524.993 291.711 525.357 291.879C525.722 292.044 526.011 292.272 526.224 292.561C526.439 292.849 526.553 293.177 526.565 293.544H525.712ZM530.285 299.112C529.76 299.112 529.306 298.996 528.925 298.764C528.547 298.53 528.254 298.203 528.048 297.784C527.845 297.363 527.743 296.873 527.743 296.314C527.743 295.755 527.845 295.263 528.048 294.837C528.254 294.408 528.541 294.075 528.908 293.835C529.277 293.594 529.708 293.473 530.2 293.473C530.484 293.473 530.765 293.521 531.042 293.615C531.319 293.71 531.571 293.864 531.798 294.077C532.025 294.288 532.207 294.567 532.342 294.915C532.476 295.263 532.544 295.691 532.544 296.2V296.556H528.339V295.831H531.692C531.692 295.523 531.63 295.249 531.507 295.007C531.386 294.766 531.213 294.575 530.989 294.436C530.766 294.296 530.503 294.226 530.2 294.226C529.866 294.226 529.578 294.309 529.334 294.475C529.092 294.638 528.906 294.851 528.776 295.114C528.646 295.377 528.581 295.658 528.581 295.959V296.442C528.581 296.854 528.652 297.203 528.794 297.49C528.938 297.774 529.138 297.99 529.394 298.139C529.65 298.286 529.947 298.36 530.285 298.36C530.506 298.36 530.704 298.329 530.882 298.267C531.062 298.203 531.217 298.109 531.347 297.983C531.477 297.855 531.578 297.697 531.649 297.507L532.459 297.735C532.373 298.009 532.23 298.251 532.029 298.459C531.828 298.665 531.579 298.826 531.283 298.942C530.987 299.056 530.655 299.112 530.285 299.112ZM533.819 301.044V293.544H534.628V294.411H534.728C534.789 294.316 534.875 294.195 534.984 294.048C535.095 293.899 535.253 293.767 535.459 293.651C535.668 293.532 535.949 293.473 536.305 293.473C536.764 293.473 537.169 293.588 537.519 293.818C537.869 294.047 538.143 294.373 538.339 294.794C538.536 295.216 538.634 295.713 538.634 296.286C538.634 296.863 538.536 297.364 538.339 297.788C538.143 298.209 537.871 298.536 537.523 298.768C537.175 298.998 536.773 299.112 536.319 299.112C535.968 299.112 535.688 299.054 535.477 298.938C535.266 298.82 535.104 298.686 534.991 298.537C534.877 298.386 534.789 298.26 534.728 298.161H534.657V301.044H533.819ZM534.643 296.272C534.643 296.683 534.703 297.047 534.824 297.362C534.945 297.674 535.121 297.919 535.353 298.097C535.585 298.272 535.869 298.36 536.205 298.36C536.556 298.36 536.848 298.267 537.082 298.083C537.319 297.896 537.497 297.645 537.615 297.33C537.736 297.013 537.796 296.66 537.796 296.272C537.796 295.888 537.737 295.542 537.619 295.235C537.503 294.924 537.326 294.679 537.089 294.499C536.855 294.317 536.56 294.226 536.205 294.226C535.864 294.226 535.578 294.312 535.346 294.485C535.114 294.656 534.939 294.895 534.82 295.203C534.702 295.508 534.643 295.864 534.643 296.272Z" fill="#5A6B74"/>
<path d="M585.517 295.362C585.517 296.129 585.379 296.792 585.102 297.351C584.825 297.91 584.445 298.341 583.962 298.644C583.479 298.947 582.927 299.098 582.307 299.098C581.687 299.098 581.135 298.947 580.652 298.644C580.169 298.341 579.789 297.91 579.512 297.351C579.235 296.792 579.097 296.129 579.097 295.362C579.097 294.595 579.235 293.932 579.512 293.374C579.789 292.815 580.169 292.384 580.652 292.081C581.135 291.778 581.687 291.627 582.307 291.627C582.927 291.627 583.479 291.778 583.962 292.081C584.445 292.384 584.825 292.815 585.102 293.374C585.379 293.932 585.517 294.595 585.517 295.362ZM584.665 295.362C584.665 294.733 584.559 294.201 584.349 293.768C584.14 293.335 583.857 293.007 583.5 292.784C583.145 292.562 582.747 292.45 582.307 292.45C581.866 292.45 581.468 292.562 581.11 292.784C580.755 293.007 580.472 293.335 580.261 293.768C580.053 294.201 579.949 294.733 579.949 295.362C579.949 295.992 580.053 296.524 580.261 296.957C580.472 297.39 580.755 297.718 581.11 297.941C581.468 298.163 581.866 298.274 582.307 298.274C582.747 298.274 583.145 298.163 583.5 297.941C583.857 297.718 584.14 297.39 584.349 296.957C584.559 296.524 584.665 295.992 584.665 295.362ZM589.1 299.112C588.589 299.112 588.148 298.992 587.779 298.75C587.41 298.509 587.126 298.176 586.927 297.752C586.728 297.329 586.629 296.844 586.629 296.3C586.629 295.746 586.73 295.257 586.934 294.833C587.14 294.407 587.426 294.075 587.793 293.835C588.163 293.594 588.594 293.473 589.086 293.473C589.469 293.473 589.815 293.544 590.123 293.686C590.431 293.828 590.683 294.027 590.879 294.283C591.076 294.539 591.198 294.837 591.245 295.178H590.407C590.343 294.929 590.201 294.709 589.981 294.517C589.763 294.323 589.469 294.226 589.1 294.226C588.773 294.226 588.487 294.311 588.241 294.482C587.997 294.65 587.806 294.888 587.669 295.196C587.534 295.501 587.467 295.86 587.467 296.272C587.467 296.693 587.533 297.06 587.665 297.372C587.8 297.685 587.99 297.928 588.234 298.1C588.48 298.273 588.769 298.36 589.1 298.36C589.318 298.36 589.516 298.322 589.693 298.246C589.871 298.17 590.021 298.061 590.144 297.919C590.267 297.777 590.355 297.607 590.407 297.408H591.245C591.198 297.73 591.08 298.02 590.893 298.278C590.709 298.534 590.464 298.737 590.158 298.889C589.855 299.038 589.503 299.112 589.1 299.112ZM594.842 293.544V294.254H592.016V293.544H594.842ZM592.839 292.237H593.678V297.436C593.678 297.673 593.712 297.851 593.781 297.969C593.852 298.085 593.942 298.163 594.05 298.203C594.162 298.241 594.279 298.26 594.402 298.26C594.494 298.26 594.57 298.255 594.629 298.246C594.688 298.234 594.736 298.225 594.771 298.218L594.942 298.97C594.885 298.992 594.806 299.013 594.704 299.034C594.602 299.058 594.473 299.07 594.317 299.07C594.08 299.07 593.848 299.019 593.621 298.917C593.396 298.815 593.209 298.66 593.06 298.452C592.913 298.244 592.839 297.981 592.839 297.664V292.237Z" fill="#5A6B74"/>
<line x1="322.624" y1="173.84" x2="322.624" y2="270.709" stroke="#53389E" stroke-width="0.672783" stroke-dasharray="2.96 2.96"/>
<g filter="url(#filter1_dd_3025_182351)">
<rect x="316.5" y="169.5" width="13" height="13" rx="6.5" fill="#53389E"/>
<rect x="317.846" y="170.846" width="10.3089" height="10.3089" rx="5.15443" stroke="#F9FAFB" stroke-width="2.69113"/>
</g>
<rect x="20" y="19.5" width="598" height="300" rx="7.5" stroke="#E6E6E6"/>
</g>
<defs>
<filter id="filter0_f_3025_182351" x="0.5" y="0" width="637" height="339" filterUnits="userSpaceOnUse" color-interpolation-filters="sRGB">
<feFlood flood-opacity="0" result="BackgroundImageFix"/>
<feBlend mode="normal" in="SourceGraphic" in2="BackgroundImageFix" result="shape"/>
<feGaussianBlur stdDeviation="9.5" result="effect1_foregroundBlur_3025_182351"/>
</filter>
<filter id="filter1_dd_3025_182351" x="312.912" y="167.706" width="20.1764" height="20.1764" filterUnits="userSpaceOnUse" color-interpolation-filters="sRGB">
<feFlood flood-opacity="0" result="BackgroundImageFix"/>
<feColorMatrix in="SourceAlpha" type="matrix" values="0 0 0 0 0 0 0 0 0 0 0 0 0 0 0 0 0 0 127 0" result="hardAlpha"/>
<feOffset dy="1.79409"/>
<feGaussianBlur stdDeviation="1.79409"/>
<feColorMatrix type="matrix" values="0 0 0 0 0.196487 0 0 0 0 0.196487 0 0 0 0 0.279476 0 0 0 0.06 0"/>
<feBlend mode="multiply" in2="BackgroundImageFix" result="effect1_dropShadow_3025_182351"/>
<feColorMatrix in="SourceAlpha" type="matrix" values="0 0 0 0 0 0 0 0 0 0 0 0 0 0 0 0 0 0 127 0" result="hardAlpha"/>
<feOffset dy="1.79409"/>
<feGaussianBlur stdDeviation="0.897044"/>
<feColorMatrix type="matrix" values="0 0 0 0 0.196487 0 0 0 0 0.196487 0 0 0 0 0.279476 0 0 0 0.06 0"/>
<feBlend mode="multiply" in2="effect1_dropShadow_3025_182351" result="effect2_dropShadow_3025_182351"/>
<feBlend mode="normal" in="SourceGraphic" in2="effect2_dropShadow_3025_182351" result="shape"/>
</filter>
<linearGradient id="paint0_linear_3025_182351" x1="331.202" y1="108.335" x2="331.202" y2="338.629" gradientUnits="userSpaceOnUse">
<stop stop-color="#7F56D9"/>
<stop offset="0.998978" stop-color="white" stop-opacity="0"/>
</linearGradient>
<clipPath id="clip0_3025_182351">
<rect width="86" height="23.5834" fill="white" transform="translate(35.5 33.5464)"/>
</clipPath>
</defs>
</svg>
