<svg width="66" height="98" viewBox="0 0 66 98" fill="none" xmlns="http://www.w3.org/2000/svg">
<rect x="25.4799" y="50.3331" width="30.4355" height="30.4355" rx="5.40592" transform="rotate(25.5921 25.4799 50.3331)" fill="#7F56D9"/>
<g clip-path="url(#clip0_2409_2443)">
<path d="M34.1968 65.9423L32.427 65.0946C31.4977 64.6495 31.0331 64.427 30.5916 64.4378C30.2032 64.4474 29.8278 64.5797 29.5192 64.8157C29.1683 65.084 28.9458 65.5486 28.5007 66.4779L26.5405 70.5706C26.0954 71.4999 25.8729 71.9645 25.8837 72.4061C25.8933 72.7945 26.0255 73.1699 26.2616 73.4785C26.5299 73.8293 26.9945 74.0518 27.9238 74.4969L32.0165 76.4571C32.9458 76.9022 33.4104 77.1247 33.852 77.1139C34.2403 77.1043 34.6157 76.9721 34.9244 76.7361C35.2752 76.4677 35.4977 76.0031 35.9428 75.0739L36.7905 73.304M31.8593 73.662L28.5409 72.0727M34.0251 71.9795L29.6005 69.8604M39.2738 68.2914C39.6114 69.2497 39.1082 70.3002 38.1499 70.6379C37.1916 70.9755 36.141 70.4723 35.8034 69.514C35.4658 68.5557 35.9689 67.5051 36.9272 67.1675C37.8856 66.8299 38.9361 67.333 39.2738 68.2914Z" stroke="#F5F3FA" stroke-width="1.22648" stroke-linecap="round" stroke-linejoin="round"/>
</g>
<rect x="25.4799" y="50.3331" width="30.4355" height="30.4355" rx="5.40592" transform="rotate(25.5921 25.4799 50.3331)" stroke="white"/>
<rect x="5.53654" y="80.745" width="17.154" height="17.154" rx="2.49039" transform="rotate(-15 5.53654 80.745)" fill="#53389E"/>
<g clip-path="url(#clip1_2409_2443)">
<path d="M17.2615 82.5448L19.1252 83.6208M13.3515 91.4691L13.3597 89.6237C13.3602 89.5033 13.3605 89.4431 13.37 89.3845C13.3784 89.3325 13.3922 89.2815 13.4111 89.2323C13.4325 89.1769 13.4626 89.1248 13.5228 89.0205L16.3024 84.2061C16.3556 84.1138 16.3823 84.0677 16.4206 84.0428C16.4543 84.0209 16.494 84.0103 16.5341 84.0124C16.5797 84.0148 16.6259 84.0414 16.7181 84.0947L18.0546 84.8663C18.1469 84.9196 18.193 84.9462 18.2179 84.9845C18.2398 85.0182 18.2504 85.0579 18.2483 85.0981C18.2459 85.1437 18.2193 85.1898 18.166 85.282L15.3864 90.0965C15.3262 90.2007 15.2961 90.2529 15.2588 90.299C15.2257 90.3401 15.1884 90.3775 15.1475 90.4108C15.1015 90.4483 15.0495 90.4786 14.9455 90.5393L13.3515 91.4691Z" stroke="#D7C6FE" stroke-width="0.760825" stroke-linecap="round" stroke-linejoin="round"/>
</g>
<rect x="5.53654" y="80.745" width="17.154" height="17.154" rx="2.49039" transform="rotate(-15 5.53654 80.745)" stroke="white" stroke-width="1.10581"/>
<rect x="0.67717" y="14.1288" width="51.9732" height="51.9732" rx="8.2936" transform="rotate(-15 0.67717 14.1288)" fill="#53389E"/>
<g clip-path="url(#clip2_2409_2443)">
<path d="M38.3411 28.6507L32.9237 25.523M25.0763 45.3704L28.5837 44.0002C29.0122 43.8327 29.2264 43.749 29.4149 43.6269C29.5822 43.5186 29.734 43.3881 29.8663 43.2391C30.0154 43.0711 30.1304 42.8719 30.3605 42.4735L40.6869 24.5877C41.5505 23.0917 41.038 21.1789 39.542 20.3152C38.0461 19.4515 36.1332 19.964 35.2695 21.46L24.9431 39.3458C24.7131 39.7442 24.5981 39.9434 24.5272 40.1565C24.4643 40.3456 24.4272 40.5423 24.417 40.7413C24.4055 40.9656 24.4401 41.193 24.5094 41.6479L25.0763 45.3704Z" stroke="white" stroke-width="2.21163" stroke-linecap="round" stroke-linejoin="round"/>
</g>
<rect x="0.67717" y="14.1288" width="51.9732" height="51.9732" rx="8.2936" transform="rotate(-15 0.67717 14.1288)" stroke="white" stroke-width="1.10581"/>
<defs>
<clipPath id="clip0_2409_2443">
<rect width="14.7178" height="14.7178" fill="white" transform="translate(29.1726 60.8159) rotate(25.5921)"/>
</clipPath>
<clipPath id="clip1_2409_2443">
<rect width="9.1299" height="9.1299" fill="white" transform="translate(10.4504 83.582) rotate(-15)"/>
</clipPath>
<clipPath id="clip2_2409_2443">
<rect width="26.5395" height="26.5395" fill="white" transform="translate(16.2524 23.1211) rotate(-15)"/>
</clipPath>
</defs>
</svg>
