<svg width="126" height="48" viewBox="0 0 126 48" fill="none" xmlns="http://www.w3.org/2000/svg">
<path d="M78 25C78.5523 25 79 24.5523 79 24C79 23.4477 78.5523 23 78 23V25ZM0.226494 24L6 29.7735L11.7735 24L6 18.2265L0.226494 24ZM74.4 23C73.8477 23 73.4 23.4477 73.4 24C73.4 24.5523 73.8477 25 74.4 25V23ZM67.2 25C67.7523 25 68.2 24.5523 68.2 24C68.2 23.4477 67.7523 23 67.2 23V25ZM60 23C59.4477 23 59 23.4477 59 24C59 24.5523 59.4477 25 60 25V23ZM52.8 25C53.3523 25 53.8 24.5523 53.8 24C53.8 23.4477 53.3523 23 52.8 23V25ZM45.6 23C45.0477 23 44.6 23.4477 44.6 24C44.6 24.5523 45.0477 25 45.6 25V23ZM38.4 25C38.9523 25 39.4 24.5523 39.4 24C39.4 23.4477 38.9523 23 38.4 23V25ZM31.2 23C30.6477 23 30.2 23.4477 30.2 24C30.2 24.5523 30.6477 25 31.2 25V23ZM24 25C24.5523 25 25 24.5523 25 24C25 23.4477 24.5523 23 24 23V25ZM16.8 23C16.2477 23 15.8 23.4477 15.8 24C15.8 24.5523 16.2477 25 16.8 25V23ZM9.6 25C10.1523 25 10.6 24.5523 10.6 24C10.6 23.4477 10.1523 23 9.6 23V25ZM78 23H74.4V25H78V23ZM67.2 23H60V25H67.2V23ZM52.8 23H45.6V25H52.8V23ZM38.4 23H31.2V25H38.4V23ZM24 23H16.8V25H24V23ZM9.6 23H6V25H9.6V23Z" fill="url(#paint0_linear_2409_3182)"/>
<rect x="78" width="48" height="48" rx="8" fill="#D7C6FE"/>
<path d="M102 26.9998L99 23.9998M102 26.9998C103.397 26.4685 104.737 25.7985 106 24.9998M102 26.9998V31.9998C102 31.9998 105.03 31.4498 106 29.9998C107.08 28.3798 106 24.9998 106 24.9998M99 23.9998C99.5321 22.6192 100.202 21.2958 101 20.0498C102.165 18.1867 103.788 16.6528 105.713 15.5939C107.638 14.5349 109.803 13.9861 112 13.9998C112 16.7198 111.22 21.4998 106 24.9998M99 23.9998H94C94 23.9998 94.55 20.9698 96 19.9998C97.62 18.9198 101 19.9998 101 19.9998M94.5 28.4998C93 29.7598 92.5 33.4998 92.5 33.4998C92.5 33.4998 96.24 32.9998 97.5 31.4998C98.21 30.6598 98.2 29.3698 97.41 28.5898C97.0213 28.2188 96.5093 28.0044 95.9722 27.9878C95.4352 27.9712 94.9109 28.1535 94.5 28.4998Z" stroke="#53389E" stroke-width="2" stroke-linecap="round" stroke-linejoin="round"/>
<defs>
<linearGradient id="paint0_linear_2409_3182" x1="69.3638" y1="23.4977" x2="15.7627" y2="23.4977" gradientUnits="userSpaceOnUse">
<stop offset="0.00520833" stop-color="#7F56D9" stop-opacity="0"/>
<stop offset="0.520833" stop-color="#7F56D9"/>
<stop offset="1" stop-color="#7F56D9"/>
</linearGradient>
</defs>
</svg>
