<svg width="85" height="22" viewBox="0 0 85 22" fill="none" xmlns="http://www.w3.org/2000/svg">
<path d="M4.4162 0.906964V21H0.648751V0.906964H4.4162ZM3.87986 13.4259H2.84643C2.85515 12.4404 2.98596 11.5334 3.23887 10.7049C3.49178 9.86773 3.85369 9.14389 4.32463 8.53342C4.79556 7.91424 5.35806 7.43458 6.01213 7.09447C6.67492 6.75435 7.40748 6.58429 8.2098 6.58429C8.90748 6.58429 9.53974 6.68458 10.1066 6.88517C10.6822 7.07703 11.1749 7.39098 11.5848 7.82703C12.0034 8.25435 12.3261 8.81685 12.5528 9.51453C12.7796 10.2122 12.8929 11.0581 12.8929 12.0523V21H9.09934V12.0262C9.09934 11.3982 9.00777 10.9055 8.82463 10.548C8.65021 10.1817 8.39294 9.92441 8.05283 9.77616C7.72143 9.61918 7.31155 9.54069 6.82317 9.54069C6.28248 9.54069 5.82027 9.64098 5.43654 9.84156C5.06154 10.0421 4.76067 10.3212 4.53393 10.6788C4.30718 11.0276 4.14149 11.4375 4.03683 11.9084C3.93218 12.3794 3.87986 12.8852 3.87986 13.4259ZM21.7365 21.2616C20.6377 21.2616 19.6522 21.0872 18.7801 20.7384C17.908 20.3808 17.1667 19.8881 16.5563 19.2602C15.9545 18.6323 15.4923 17.9041 15.1696 17.0756C14.847 16.2384 14.6856 15.3488 14.6856 14.407V13.8837C14.6856 12.811 14.8382 11.8299 15.1435 10.9404C15.4487 10.0509 15.8847 9.27906 16.4516 8.62499C17.0272 7.97092 17.7249 7.46947 18.5446 7.12063C19.3644 6.76307 20.2888 6.58429 21.3179 6.58429C22.3208 6.58429 23.2103 6.74999 23.9865 7.08139C24.7627 7.41278 25.4124 7.88371 25.9356 8.49418C26.4676 9.10464 26.8688 9.8372 27.1391 10.6919C27.4095 11.5378 27.5446 12.4796 27.5446 13.5174V15.0872H16.2946V12.5756H23.8426V12.2878C23.8426 11.7645 23.7467 11.298 23.5548 10.8881C23.3717 10.4695 23.0926 10.1381 22.7176 9.89389C22.3426 9.6497 21.863 9.52761 21.2786 9.52761C20.7816 9.52761 20.3542 9.63662 19.9967 9.85464C19.6391 10.0727 19.347 10.3779 19.1202 10.7703C18.9022 11.1628 18.7365 11.625 18.6231 12.157C18.5185 12.6802 18.4661 13.2558 18.4661 13.8837V14.407C18.4661 14.9738 18.5446 15.4971 18.7016 15.9767C18.8673 16.4564 19.0984 16.8706 19.3949 17.2195C19.7002 17.5683 20.0664 17.8387 20.4938 18.0305C20.9298 18.2224 21.4225 18.3183 21.972 18.3183C22.6522 18.3183 23.2845 18.1875 23.8688 17.9259C24.4618 17.6555 24.972 17.25 25.3993 16.7093L27.2307 18.6977C26.9342 19.125 26.5287 19.5349 26.0141 19.9273C25.5083 20.3198 24.8978 20.6424 24.1827 20.8953C23.4676 21.1395 22.6522 21.2616 21.7365 21.2616ZM32.9216 9.93313V21H29.1542V6.84592H32.6992L32.9216 9.93313ZM37.1862 6.75435L37.1208 10.2471C36.9376 10.2209 36.7152 10.1991 36.4536 10.1817C36.2007 10.1555 35.9696 10.1424 35.7603 10.1424C35.2283 10.1424 34.7661 10.2122 34.3737 10.3517C33.9899 10.4826 33.6673 10.6788 33.4056 10.9404C33.1527 11.202 32.9609 11.5203 32.83 11.8953C32.708 12.2703 32.6382 12.6977 32.6207 13.1773L31.862 12.9419C31.862 12.0262 31.9536 11.1846 32.1367 10.4171C32.3199 9.64098 32.5859 8.96511 32.9347 8.38953C33.2923 7.81395 33.7283 7.36918 34.2428 7.05522C34.7574 6.74127 35.346 6.58429 36.0088 6.58429C36.2181 6.58429 36.4318 6.60174 36.6498 6.63662C36.8678 6.66278 37.0466 6.70203 37.1862 6.75435ZM44.6823 21.2616C43.5835 21.2616 42.598 21.0872 41.7259 20.7384C40.8538 20.3808 40.1126 19.8881 39.5021 19.2602C38.9003 18.6323 38.4381 17.9041 38.1155 17.0756C37.7928 16.2384 37.6314 15.3488 37.6314 14.407V13.8837C37.6314 12.811 37.7841 11.8299 38.0893 10.9404C38.3945 10.0509 38.8306 9.27906 39.3974 8.62499C39.973 7.97092 40.6707 7.46947 41.4905 7.12063C42.3102 6.76307 43.2346 6.58429 44.2637 6.58429C45.2666 6.58429 46.1562 6.74999 46.9323 7.08139C47.7085 7.41278 48.3582 7.88371 48.8815 8.49418C49.4134 9.10464 49.8146 9.8372 50.0849 10.6919C50.3553 11.5378 50.4905 12.4796 50.4905 13.5174V15.0872H39.2405V12.5756H46.7884V12.2878C46.7884 11.7645 46.6925 11.298 46.5006 10.8881C46.3175 10.4695 46.0384 10.1381 45.6634 9.89389C45.2884 9.6497 44.8088 9.52761 44.2245 9.52761C43.7274 9.52761 43.3001 9.63662 42.9425 9.85464C42.5849 10.0727 42.2928 10.3779 42.066 10.7703C41.848 11.1628 41.6823 11.625 41.5689 12.157C41.4643 12.6802 41.412 13.2558 41.412 13.8837V14.407C41.412 14.9738 41.4905 15.4971 41.6474 15.9767C41.8131 16.4564 42.0442 16.8706 42.3408 17.2195C42.646 17.5683 43.0123 17.8387 43.4396 18.0305C43.8756 18.2224 44.3684 18.3183 44.9178 18.3183C45.598 18.3183 46.2303 18.1875 46.8146 17.9259C47.4076 17.6555 47.9178 17.25 48.3451 16.7093L50.1765 18.6977C49.88 19.125 49.4745 19.5349 48.9599 19.9273C48.4541 20.3198 47.8437 20.6424 47.1285 20.8953C46.4134 21.1395 45.598 21.2616 44.6823 21.2616ZM59.2938 16.0523V21H58.8345V14.7093H59.288L59.2938 16.0523ZM59.2066 17.3721L58.9799 17.1046C59.0148 16.7713 59.0962 16.4535 59.2241 16.1512C59.3559 15.8488 59.5283 15.5814 59.7415 15.3488C59.9586 15.1163 60.2105 14.9322 60.4973 14.7965C60.788 14.6608 61.1078 14.593 61.4566 14.593C61.7706 14.593 62.0516 14.6376 62.2997 14.7267C62.5477 14.812 62.757 14.9477 62.9276 15.1337C63.102 15.3198 63.2338 15.5601 63.3229 15.8546C63.4121 16.1453 63.4566 16.5 63.4566 16.9186V21H62.9973V16.9186C62.9973 16.4225 62.9295 16.0388 62.7938 15.7674C62.6582 15.4922 62.4683 15.2984 62.2241 15.186C61.9838 15.0736 61.7028 15.0174 61.3811 15.0174C61.009 15.0174 60.6873 15.1008 60.4159 15.2674C60.1485 15.4302 59.9276 15.6376 59.7531 15.8895C59.5787 16.1376 59.445 16.3953 59.352 16.6628C59.2628 16.9302 59.2144 17.1667 59.2066 17.3721ZM67.4627 21.1163C67.0673 21.1163 66.7011 21.0407 66.3638 20.8895C66.0266 20.7345 65.7321 20.5194 65.4801 20.2442C65.2282 19.9651 65.0305 19.6357 64.8871 19.2558C64.7476 18.876 64.6778 18.4593 64.6778 18.0058V17.75C64.6778 17.281 64.7476 16.8546 64.8871 16.4709C65.0305 16.0833 65.2243 15.75 65.4685 15.4709C65.7127 15.188 65.9937 14.9709 66.3115 14.8198C66.6332 14.6686 66.9762 14.593 67.3406 14.593C67.7088 14.593 68.0421 14.6608 68.3406 14.7965C68.639 14.9322 68.8949 15.1221 69.108 15.3663C69.3212 15.6105 69.484 15.9012 69.5964 16.2384C69.7088 16.5756 69.765 16.9477 69.765 17.3546V17.7442H64.9685V17.3198H69.3057V17.2442C69.3018 16.8488 69.2204 16.4826 69.0615 16.1453C68.9065 15.8081 68.6836 15.5368 68.3929 15.3314C68.1022 15.1221 67.7514 15.0174 67.3406 15.0174C67.0111 15.0174 66.7107 15.0872 66.4394 15.2267C66.172 15.3663 65.9414 15.5601 65.7476 15.8081C65.5538 16.0523 65.4045 16.3411 65.2999 16.6744C65.1952 17.0039 65.1429 17.3624 65.1429 17.75V18.0058C65.1429 18.3779 65.2011 18.7267 65.3173 19.0523C65.4336 19.3779 65.5964 19.6647 65.8057 19.9128C66.015 20.157 66.2611 20.3488 66.5441 20.4884C66.827 20.6279 67.1371 20.6977 67.4743 20.6977C67.8387 20.6977 68.172 20.6337 68.4743 20.5058C68.7766 20.3779 69.0518 20.1531 69.2999 19.8314L69.6022 20.0581C69.4627 20.2597 69.2941 20.4399 69.0964 20.5988C68.8987 20.7578 68.6642 20.8837 68.3929 20.9767C68.1255 21.0698 67.8154 21.1163 67.4627 21.1163ZM72.8059 19.3198L74.2536 14.7093H74.6199L74.2362 16.1686L72.6839 21H72.3118L72.8059 19.3198ZM70.9338 14.7093L72.2362 19.3256L72.6315 21H72.2594L70.4338 14.7093H70.9338ZM76.7129 19.3198L77.9978 14.7093H78.5036L76.6722 21H76.3001L76.7129 19.3198ZM74.6839 14.7093L76.1257 19.3023L76.6199 21H76.2478L74.6722 16.1686L74.3118 14.7093H74.6839ZM83.562 19.436C83.562 19.25 83.5116 19.0659 83.4108 18.8837C83.3139 18.7015 83.1337 18.531 82.8701 18.3721C82.6105 18.2132 82.2325 18.0795 81.7364 17.9709C81.3837 17.8934 81.0717 17.8081 80.8004 17.7151C80.5329 17.6221 80.3081 17.5097 80.126 17.3779C79.9438 17.2422 79.8062 17.0814 79.7132 16.8953C79.624 16.7093 79.5794 16.4864 79.5794 16.2267C79.5794 16.0019 79.6279 15.7907 79.7248 15.593C79.8217 15.3953 79.9632 15.2229 80.1492 15.0756C80.3391 14.9244 80.5659 14.8062 80.8294 14.7209C81.093 14.6357 81.3915 14.593 81.7248 14.593C82.2015 14.593 82.6085 14.6725 82.9457 14.8314C83.2868 14.9864 83.5484 15.2015 83.7306 15.4767C83.9128 15.7481 84.0039 16.0639 84.0039 16.4244H83.5387C83.5387 16.1802 83.469 15.9515 83.3294 15.7384C83.1899 15.5252 82.9845 15.3527 82.7132 15.2209C82.4457 15.0853 82.1163 15.0174 81.7248 15.0174C81.3294 15.0174 81.0077 15.0775 80.7597 15.1977C80.5116 15.3178 80.3294 15.4709 80.2132 15.657C80.1008 15.8391 80.0446 16.0252 80.0446 16.2151C80.0446 16.3663 80.0659 16.5077 80.1085 16.6395C80.155 16.7674 80.2422 16.8857 80.3701 16.9942C80.498 17.1027 80.6822 17.2074 80.9225 17.3081C81.1628 17.405 81.4748 17.4961 81.8585 17.5814C82.3624 17.6938 82.7732 17.8314 83.0911 17.9942C83.4089 18.1531 83.6434 18.3488 83.7946 18.5814C83.9457 18.8101 84.0213 19.0911 84.0213 19.4244C84.0213 19.6725 83.969 19.9012 83.8643 20.1105C83.7597 20.3159 83.6085 20.4942 83.4108 20.6453C83.217 20.7965 82.9806 20.9128 82.7015 20.9942C82.4225 21.0756 82.1124 21.1163 81.7713 21.1163C81.2558 21.1163 80.8178 21.0349 80.4573 20.8721C80.1008 20.7054 79.8294 20.4864 79.6434 20.2151C79.4612 19.9438 79.3701 19.6512 79.3701 19.3372H79.8353C79.8624 19.6822 79.9748 19.9535 80.1725 20.1512C80.374 20.3488 80.6182 20.4884 80.905 20.5698C81.1957 20.6512 81.4845 20.6919 81.7713 20.6919C82.1628 20.6919 82.4903 20.6318 82.7539 20.5116C83.0213 20.3876 83.2229 20.2306 83.3585 20.0407C83.4942 19.8469 83.562 19.6453 83.562 19.436Z" fill="#53389E"/>
<path d="M52.2831 19.1817C52.2831 18.6235 52.475 18.157 52.8587 17.782C53.2512 17.407 53.7701 17.2195 54.4154 17.2195C55.0608 17.2195 55.5753 17.407 55.959 17.782C56.3515 18.157 56.5477 18.6235 56.5477 19.1817C56.5477 19.7398 56.3515 20.2064 55.959 20.5814C55.5753 20.9564 55.0608 21.1439 54.4154 21.1439C53.7701 21.1439 53.2512 20.9564 52.8587 20.5814C52.475 20.2064 52.2831 19.7398 52.2831 19.1817Z" fill="#7F56D9"/>
</svg>
