<svg width="114" height="174" viewBox="0 0 114 174" fill="none" xmlns="http://www.w3.org/2000/svg">
<path d="M54.3572 163.798C54.3572 162.924 54.4703 144.919 54.5656 129.988C56.5898 131.246 59.3062 132.237 62.8352 132.237C69.3668 132.237 72.7368 127.964 73.8213 124.33C75.7253 125.571 78.2864 126.448 81.6281 126.448C89.216 126.448 94.1226 121.014 94.1226 112.608C94.1226 112.213 94.1509 111.715 94.2003 111.143C95.8323 112.98 97.9907 114.244 100.838 114.244C108.712 114.244 114 109.111 114 101.469L114 55.7469C114 55.4859 113.968 55.2249 113.905 54.9706C113.753 54.365 110.245 40.6257 104.37 32.9931L104.37 19.7758C104.37 8.87065 94.9987 -1.09398e-06 83.4756 -1.7574e-06L60.5956 -3.07469e-06C49.0761 -3.7379e-06 39.7044 8.86396 39.7044 19.759L39.7044 30.7645C34.8295 34.877 17.3507 50.3395 11.7482 64.9756C8.26159 74.0872 6.61897 81.5625 5.30488 87.5655C4.26985 92.2702 3.37966 96.3324 1.91014 99.7923C1.27783 101.281 0.966982 102.747 0.966982 104.156C0.966981 106.856 2.11504 109.329 4.35111 111.266C8.02139 114.448 14.2103 115.646 17.8665 113.88C20.9786 112.374 25.101 107.468 28.0259 102.309L29.8098 163.326C29.8204 163.63 29.8734 163.935 29.9688 164.226C31.1593 167.853 35.0168 174 41.9299 174C49.9698 174 54.3572 167.261 54.3572 163.798ZM36.8607 162.596L34.4798 81.2346C34.441 79.9697 33.6532 78.8287 32.438 78.2933C31.2229 77.7579 29.7957 77.9185 28.7501 78.7082C26.4363 80.4516 26.0265 83.3393 25.5108 86.9933C25.2388 88.9073 24.9315 91.0756 24.3204 93.3644C22.8226 98.9859 17.0363 106.762 14.6802 107.903C13.8783 108.208 10.7343 107.86 8.97515 106.19C8.25452 105.511 7.54802 104.45 8.46294 102.285C10.1656 98.2732 11.1194 93.9399 12.218 88.9207C13.5568 82.824 15.0723 75.9142 18.3893 67.251C24.1402 52.21 45.3105 34.9941 45.526 34.8234C46.3137 34.1877 46.7694 33.2574 46.7694 32.277L46.7694 19.759C46.7694 12.5514 52.9725 6.6923 60.5956 6.6923L83.4756 6.69231C91.1023 6.69231 97.3054 12.5615 97.3054 19.7758L97.3054 34.1308C97.3054 34.9037 97.588 35.6499 98.1037 36.2489C102.943 41.8604 106.334 53.8999 106.939 56.1585L106.939 101.469C106.939 104.243 105.879 107.552 100.838 107.552C98.9515 107.552 96.825 101.887 96.3234 97.1991C96.1432 95.5427 94.7125 94.2645 92.9569 94.1942C91.2012 94.124 89.6575 95.2851 89.3361 96.9213C89.1064 98.1025 87.0611 108.563 87.0611 112.615C87.0611 117.356 85.2313 119.762 81.6317 119.762C77.866 119.762 76.612 117.862 76.2446 117.018L76.4601 108.328C76.4707 106.602 75.0965 105.073 73.2384 104.915C71.3874 104.761 69.7201 105.993 69.4375 107.736L67.1908 121.579C67.1378 122.242 66.6892 125.551 62.8388 125.551C58.8188 125.551 56.8688 123.272 56.2436 122.342L54.6751 109.67C54.4561 107.913 52.8347 106.619 50.9695 106.719C49.1079 106.816 47.6455 108.272 47.6349 110.042C47.6349 110.042 47.3134 162.322 47.3169 163.563C47.3099 163.6 46.0276 167.311 41.9369 167.311C39.0756 167.308 37.3447 163.751 36.8607 162.596Z" fill="white"/>
</svg>
