<svg width="86" height="32" viewBox="0 0 86 32" fill="none" xmlns="http://www.w3.org/2000/svg">
<path d="M5.4162 4.90696V25H1.64875V4.90696H5.4162ZM4.87986 17.4259H3.84643C3.85515 16.4404 3.98596 15.5334 4.23887 14.7049C4.49178 13.8677 4.85369 13.1439 5.32463 12.5334C5.79556 11.9142 6.35806 11.4346 7.01213 11.0945C7.67492 10.7544 8.40748 10.5843 9.2098 10.5843C9.90748 10.5843 10.5397 10.6846 11.1066 10.8852C11.6822 11.077 12.1749 11.391 12.5848 11.827C13.0034 12.2544 13.3261 12.8169 13.5528 13.5145C13.7796 14.2122 13.8929 15.0581 13.8929 16.0523V25H10.0993V16.0262C10.0993 15.3982 10.0078 14.9055 9.82463 14.548C9.65021 14.1817 9.39294 13.9244 9.05283 13.7762C8.72143 13.6192 8.31155 13.5407 7.82317 13.5407C7.28248 13.5407 6.82027 13.641 6.43654 13.8416C6.06154 14.0421 5.76067 14.3212 5.53393 14.6788C5.30718 15.0276 5.14149 15.4375 5.03683 15.9084C4.93218 16.3794 4.87986 16.8852 4.87986 17.4259ZM22.7365 25.2616C21.6377 25.2616 20.6522 25.0872 19.7801 24.7384C18.908 24.3808 18.1667 23.8881 17.5563 23.2602C16.9545 22.6323 16.4923 21.9041 16.1696 21.0756C15.847 20.2384 15.6856 19.3488 15.6856 18.407V17.8837C15.6856 16.811 15.8382 15.8299 16.1435 14.9404C16.4487 14.0509 16.8847 13.2791 17.4516 12.625C18.0272 11.9709 18.7249 11.4695 19.5446 11.1206C20.3644 10.7631 21.2888 10.5843 22.3179 10.5843C23.3208 10.5843 24.2103 10.75 24.9865 11.0814C25.7627 11.4128 26.4124 11.8837 26.9356 12.4942C27.4676 13.1046 27.8688 13.8372 28.1391 14.6919C28.4095 15.5378 28.5446 16.4796 28.5446 17.5174V19.0872H17.2946V16.5756H24.8426V16.2878C24.8426 15.7645 24.7467 15.298 24.5548 14.8881C24.3717 14.4695 24.0926 14.1381 23.7176 13.8939C23.3426 13.6497 22.863 13.5276 22.2786 13.5276C21.7816 13.5276 21.3542 13.6366 20.9967 13.8546C20.6391 14.0727 20.347 14.3779 20.1202 14.7703C19.9022 15.1628 19.7365 15.625 19.6231 16.157C19.5185 16.6802 19.4661 17.2558 19.4661 17.8837V18.407C19.4661 18.9738 19.5446 19.4971 19.7016 19.9767C19.8673 20.4564 20.0984 20.8706 20.3949 21.2195C20.7002 21.5683 21.0664 21.8387 21.4938 22.0305C21.9298 22.2224 22.4225 22.3183 22.972 22.3183C23.6522 22.3183 24.2845 22.1875 24.8688 21.9259C25.4618 21.6555 25.972 21.25 26.3993 20.7093L28.2307 22.6977C27.9342 23.125 27.5287 23.5349 27.0141 23.9273C26.5083 24.3198 25.8978 24.6424 25.1827 24.8953C24.4676 25.1395 23.6522 25.2616 22.7365 25.2616ZM33.9216 13.9331V25H30.1542V10.8459H33.6992L33.9216 13.9331ZM38.1862 10.7544L38.1208 14.2471C37.9376 14.2209 37.7152 14.1991 37.4536 14.1817C37.2007 14.1555 36.9696 14.1424 36.7603 14.1424C36.2283 14.1424 35.7661 14.2122 35.3737 14.3517C34.9899 14.4826 34.6673 14.6788 34.4056 14.9404C34.1527 15.202 33.9609 15.5203 33.83 15.8953C33.708 16.2703 33.6382 16.6977 33.6207 17.1773L32.862 16.9419C32.862 16.0262 32.9536 15.1846 33.1367 14.4171C33.3199 13.641 33.5859 12.9651 33.9347 12.3895C34.2923 11.8139 34.7283 11.3692 35.2428 11.0552C35.7574 10.7413 36.346 10.5843 37.0088 10.5843C37.2181 10.5843 37.4318 10.6017 37.6498 10.6366C37.8678 10.6628 38.0466 10.702 38.1862 10.7544ZM45.6823 25.2616C44.5835 25.2616 43.598 25.0872 42.7259 24.7384C41.8538 24.3808 41.1126 23.8881 40.5021 23.2602C39.9003 22.6323 39.4381 21.9041 39.1155 21.0756C38.7928 20.2384 38.6314 19.3488 38.6314 18.407V17.8837C38.6314 16.811 38.7841 15.8299 39.0893 14.9404C39.3945 14.0509 39.8306 13.2791 40.3974 12.625C40.973 11.9709 41.6707 11.4695 42.4905 11.1206C43.3102 10.7631 44.2346 10.5843 45.2637 10.5843C46.2666 10.5843 47.1562 10.75 47.9323 11.0814C48.7085 11.4128 49.3582 11.8837 49.8815 12.4942C50.4134 13.1046 50.8146 13.8372 51.0849 14.6919C51.3553 15.5378 51.4905 16.4796 51.4905 17.5174V19.0872H40.2405V16.5756H47.7884V16.2878C47.7884 15.7645 47.6925 15.298 47.5006 14.8881C47.3175 14.4695 47.0384 14.1381 46.6634 13.8939C46.2884 13.6497 45.8088 13.5276 45.2245 13.5276C44.7274 13.5276 44.3001 13.6366 43.9425 13.8546C43.5849 14.0727 43.2928 14.3779 43.066 14.7703C42.848 15.1628 42.6823 15.625 42.5689 16.157C42.4643 16.6802 42.412 17.2558 42.412 17.8837V18.407C42.412 18.9738 42.4905 19.4971 42.6474 19.9767C42.8131 20.4564 43.0442 20.8706 43.3408 21.2195C43.646 21.5683 44.0123 21.8387 44.4396 22.0305C44.8756 22.2224 45.3684 22.3183 45.9178 22.3183C46.598 22.3183 47.2303 22.1875 47.8146 21.9259C48.4076 21.6555 48.9178 21.25 49.3451 20.7093L51.1765 22.6977C50.88 23.125 50.4745 23.5349 49.9599 23.9273C49.4541 24.3198 48.8437 24.6424 48.1285 24.8953C47.4134 25.1395 46.598 25.2616 45.6823 25.2616ZM60.2938 20.0523V25H59.8345V18.7093H60.288L60.2938 20.0523ZM60.2066 21.3721L59.9799 21.1046C60.0148 20.7713 60.0962 20.4535 60.2241 20.1512C60.3559 19.8488 60.5283 19.5814 60.7415 19.3488C60.9586 19.1163 61.2105 18.9322 61.4973 18.7965C61.788 18.6608 62.1078 18.593 62.4566 18.593C62.7706 18.593 63.0516 18.6376 63.2997 18.7267C63.5477 18.812 63.757 18.9477 63.9276 19.1337C64.102 19.3198 64.2338 19.5601 64.3229 19.8546C64.4121 20.1453 64.4566 20.5 64.4566 20.9186V25H63.9973V20.9186C63.9973 20.4225 63.9295 20.0388 63.7938 19.7674C63.6582 19.4922 63.4683 19.2984 63.2241 19.186C62.9838 19.0736 62.7028 19.0174 62.3811 19.0174C62.009 19.0174 61.6873 19.1008 61.4159 19.2674C61.1485 19.4302 60.9276 19.6376 60.7531 19.8895C60.5787 20.1376 60.445 20.3953 60.352 20.6628C60.2628 20.9302 60.2144 21.1667 60.2066 21.3721ZM68.4627 25.1163C68.0673 25.1163 67.7011 25.0407 67.3638 24.8895C67.0266 24.7345 66.7321 24.5194 66.4801 24.2442C66.2282 23.9651 66.0305 23.6357 65.8871 23.2558C65.7476 22.876 65.6778 22.4593 65.6778 22.0058V21.75C65.6778 21.281 65.7476 20.8546 65.8871 20.4709C66.0305 20.0833 66.2243 19.75 66.4685 19.4709C66.7127 19.188 66.9937 18.9709 67.3115 18.8198C67.6332 18.6686 67.9762 18.593 68.3406 18.593C68.7088 18.593 69.0421 18.6608 69.3406 18.7965C69.639 18.9322 69.8949 19.1221 70.108 19.3663C70.3212 19.6105 70.484 19.9012 70.5964 20.2384C70.7088 20.5756 70.765 20.9477 70.765 21.3546V21.7442H65.9685V21.3198H70.3057V21.2442C70.3018 20.8488 70.2204 20.4826 70.0615 20.1453C69.9065 19.8081 69.6836 19.5368 69.3929 19.3314C69.1022 19.1221 68.7514 19.0174 68.3406 19.0174C68.0111 19.0174 67.7107 19.0872 67.4394 19.2267C67.172 19.3663 66.9414 19.5601 66.7476 19.8081C66.5538 20.0523 66.4045 20.3411 66.2999 20.6744C66.1952 21.0039 66.1429 21.3624 66.1429 21.75V22.0058C66.1429 22.3779 66.2011 22.7267 66.3173 23.0523C66.4336 23.3779 66.5964 23.6647 66.8057 23.9128C67.015 24.157 67.2611 24.3488 67.5441 24.4884C67.827 24.6279 68.1371 24.6977 68.4743 24.6977C68.8387 24.6977 69.172 24.6337 69.4743 24.5058C69.7766 24.3779 70.0518 24.1531 70.2999 23.8314L70.6022 24.0581C70.4627 24.2597 70.2941 24.4399 70.0964 24.5988C69.8987 24.7578 69.6642 24.8837 69.3929 24.9767C69.1255 25.0698 68.8154 25.1163 68.4627 25.1163ZM73.8059 23.3198L75.2536 18.7093H75.6199L75.2362 20.1686L73.6839 25H73.3118L73.8059 23.3198ZM71.9338 18.7093L73.2362 23.3256L73.6315 25H73.2594L71.4338 18.7093H71.9338ZM77.7129 23.3198L78.9978 18.7093H79.5036L77.6722 25H77.3001L77.7129 23.3198ZM75.6839 18.7093L77.1257 23.3023L77.6199 25H77.2478L75.6722 20.1686L75.3118 18.7093H75.6839ZM84.562 23.436C84.562 23.25 84.5116 23.0659 84.4108 22.8837C84.3139 22.7015 84.1337 22.531 83.8701 22.3721C83.6105 22.2132 83.2325 22.0795 82.7364 21.9709C82.3837 21.8934 82.0717 21.8081 81.8004 21.7151C81.5329 21.6221 81.3081 21.5097 81.126 21.3779C80.9438 21.2422 80.8062 21.0814 80.7132 20.8953C80.624 20.7093 80.5794 20.4864 80.5794 20.2267C80.5794 20.0019 80.6279 19.7907 80.7248 19.593C80.8217 19.3953 80.9632 19.2229 81.1492 19.0756C81.3391 18.9244 81.5659 18.8062 81.8294 18.7209C82.093 18.6357 82.3915 18.593 82.7248 18.593C83.2015 18.593 83.6085 18.6725 83.9457 18.8314C84.2868 18.9864 84.5484 19.2015 84.7306 19.4767C84.9128 19.7481 85.0039 20.0639 85.0039 20.4244H84.5387C84.5387 20.1802 84.469 19.9515 84.3294 19.7384C84.1899 19.5252 83.9845 19.3527 83.7132 19.2209C83.4457 19.0853 83.1163 19.0174 82.7248 19.0174C82.3294 19.0174 82.0077 19.0775 81.7597 19.1977C81.5116 19.3178 81.3294 19.4709 81.2132 19.657C81.1008 19.8391 81.0446 20.0252 81.0446 20.2151C81.0446 20.3663 81.0659 20.5077 81.1085 20.6395C81.155 20.7674 81.2422 20.8857 81.3701 20.9942C81.498 21.1027 81.6822 21.2074 81.9225 21.3081C82.1628 21.405 82.4748 21.4961 82.8585 21.5814C83.3624 21.6938 83.7732 21.8314 84.0911 21.9942C84.4089 22.1531 84.6434 22.3488 84.7946 22.5814C84.9457 22.8101 85.0213 23.0911 85.0213 23.4244C85.0213 23.6725 84.969 23.9012 84.8643 24.1105C84.7597 24.3159 84.6085 24.4942 84.4108 24.6453C84.217 24.7965 83.9806 24.9128 83.7015 24.9942C83.4225 25.0756 83.1124 25.1163 82.7713 25.1163C82.2558 25.1163 81.8178 25.0349 81.4573 24.8721C81.1008 24.7054 80.8294 24.4864 80.6434 24.2151C80.4612 23.9438 80.3701 23.6512 80.3701 23.3372H80.8353C80.8624 23.6822 80.9748 23.9535 81.1725 24.1512C81.374 24.3488 81.6182 24.4884 81.905 24.5698C82.1957 24.6512 82.4845 24.6919 82.7713 24.6919C83.1628 24.6919 83.4903 24.6318 83.7539 24.5116C84.0213 24.3876 84.2229 24.2306 84.3585 24.0407C84.4942 23.8469 84.562 23.6453 84.562 23.436Z" fill="#1C1F26"/>
<path d="M53.2831 23.1817C53.2831 22.6235 53.475 22.157 53.8587 21.782C54.2512 21.407 54.7701 21.2195 55.4154 21.2195C56.0608 21.2195 56.5753 21.407 56.959 21.782C57.3515 22.157 57.5477 22.6235 57.5477 23.1817C57.5477 23.7398 57.3515 24.2064 56.959 24.5814C56.5753 24.9564 56.0608 25.1439 55.4154 25.1439C54.7701 25.1439 54.2512 24.9564 53.8587 24.5814C53.475 24.2064 53.2831 23.7398 53.2831 23.1817Z" fill="#7F56D9"/>
</svg>
